<?xml version="1.0" encoding="utf-8" standalone="no"?>
<!DOCTYPE svg PUBLIC "-//W3C//DTD SVG 1.1//EN"
  "http://www.w3.org/Graphics/SVG/1.1/DTD/svg11.dtd">
<svg xmlns:xlink="http://www.w3.org/1999/xlink" width="460.8pt" height="345.6pt" viewBox="0 0 460.8 345.6" xmlns="http://www.w3.org/2000/svg" version="1.1">
 <metadata>
  <rdf:RDF xmlns:dc="http://purl.org/dc/elements/1.1/" xmlns:cc="http://creativecommons.org/ns#" xmlns:rdf="http://www.w3.org/1999/02/22-rdf-syntax-ns#">
   <cc:Work>
    <dc:type rdf:resource="http://purl.org/dc/dcmitype/StillImage"/>
    <dc:date>2024-08-01T13:45:49.774130</dc:date>
    <dc:format>image/svg+xml</dc:format>
    <dc:creator>
     <cc:Agent>
      <dc:title>Matplotlib v3.9.1, https://matplotlib.org/</dc:title>
     </cc:Agent>
    </dc:creator>
   </cc:Work>
  </rdf:RDF>
 </metadata>
 <defs>
  <style type="text/css">*{stroke-linejoin: round; stroke-linecap: butt}</style>
 </defs>
 <g id="figure_1">
  <g id="patch_1">
   <path d="M 0 345.6 
L 460.8 345.6 
L 460.8 0 
L 0 0 
z
" style="fill: #ffffff"/>
  </g>
  <g id="axes_1">
   <g id="patch_2">
    <path d="M 57.6 307.584 
L 414.72 307.584 
L 414.72 41.472 
L 57.6 41.472 
z
" style="fill: #ffffff"/>
   </g>
   <g id="matplotlib.axis_1">
    <g id="xtick_1">
     <g id="line2d_1">
      <path d="M 57.6 307.584 
L 57.6 41.472 
" clip-path="url(#pcc13fafe53)" style="fill: none; stroke-dasharray: 2.96,1.28; stroke-dashoffset: 0; stroke: #1a1a1a; stroke-opacity: 0.1; stroke-width: 0.8"/>
     </g>
     <g id="line2d_2">
      <defs>
       <path id="m604f88640e" d="M 0 0 
L 0 3.5 
" style="stroke: #000000; stroke-width: 0.8"/>
      </defs>
      <g>
       <use xlink:href="#m604f88640e" x="57.6" y="307.584" style="stroke: #000000; stroke-width: 0.8"/>
      </g>
     </g>
     <g id="text_1">
      <!-- $\mathdefault{10^{0}}$ -->
      <g transform="translate(48.8 322.182437) scale(0.1 -0.1)">
       <defs>
        <path id="DejaVuSans-31" d="M 794 531 
L 1825 531 
L 1825 4091 
L 703 3866 
L 703 4441 
L 1819 4666 
L 2450 4666 
L 2450 531 
L 3481 531 
L 3481 0 
L 794 0 
L 794 531 
z
" transform="scale(0.015625)"/>
        <path id="DejaVuSans-30" d="M 2034 4250 
Q 1547 4250 1301 3770 
Q 1056 3291 1056 2328 
Q 1056 1369 1301 889 
Q 1547 409 2034 409 
Q 2525 409 2770 889 
Q 3016 1369 3016 2328 
Q 3016 3291 2770 3770 
Q 2525 4250 2034 4250 
z
M 2034 4750 
Q 2819 4750 3233 4129 
Q 3647 3509 3647 2328 
Q 3647 1150 3233 529 
Q 2819 -91 2034 -91 
Q 1250 -91 836 529 
Q 422 1150 422 2328 
Q 422 3509 836 4129 
Q 1250 4750 2034 4750 
z
" transform="scale(0.015625)"/>
       </defs>
       <use xlink:href="#DejaVuSans-31" transform="translate(0 0.765625)"/>
       <use xlink:href="#DejaVuSans-30" transform="translate(63.623047 0.765625)"/>
       <use xlink:href="#DejaVuSans-30" transform="translate(128.203125 39.046875) scale(0.7)"/>
      </g>
     </g>
    </g>
    <g id="xtick_2">
     <g id="line2d_3">
      <path d="M 268.889095 307.584 
L 268.889095 41.472 
" clip-path="url(#pcc13fafe53)" style="fill: none; stroke-dasharray: 2.96,1.28; stroke-dashoffset: 0; stroke: #1a1a1a; stroke-opacity: 0.1; stroke-width: 0.8"/>
     </g>
     <g id="line2d_4">
      <g>
       <use xlink:href="#m604f88640e" x="268.889095" y="307.584" style="stroke: #000000; stroke-width: 0.8"/>
      </g>
     </g>
     <g id="text_2">
      <!-- $\mathdefault{10^{1}}$ -->
      <g transform="translate(260.089095 322.182437) scale(0.1 -0.1)">
       <use xlink:href="#DejaVuSans-31" transform="translate(0 0.684375)"/>
       <use xlink:href="#DejaVuSans-30" transform="translate(63.623047 0.684375)"/>
       <use xlink:href="#DejaVuSans-31" transform="translate(128.203125 38.965625) scale(0.7)"/>
      </g>
     </g>
    </g>
    <g id="xtick_3">
     <g id="line2d_5">
      <path d="M 121.204355 307.584 
L 121.204355 41.472 
" clip-path="url(#pcc13fafe53)" style="fill: none; stroke-dasharray: 2.96,1.28; stroke-dashoffset: 0; stroke: #1a1a1a; stroke-opacity: 0.1; stroke-width: 0.8"/>
     </g>
     <g id="line2d_6">
      <defs>
       <path id="m35faabb3cc" d="M 0 0 
L 0 2 
" style="stroke: #000000; stroke-width: 0.6"/>
      </defs>
      <g>
       <use xlink:href="#m35faabb3cc" x="121.204355" y="307.584" style="stroke: #000000; stroke-width: 0.6"/>
      </g>
     </g>
    </g>
    <g id="xtick_4">
     <g id="line2d_7">
      <path d="M 158.410518 307.584 
L 158.410518 41.472 
" clip-path="url(#pcc13fafe53)" style="fill: none; stroke-dasharray: 2.96,1.28; stroke-dashoffset: 0; stroke: #1a1a1a; stroke-opacity: 0.1; stroke-width: 0.8"/>
     </g>
     <g id="line2d_8">
      <g>
       <use xlink:href="#m35faabb3cc" x="158.410518" y="307.584" style="stroke: #000000; stroke-width: 0.6"/>
      </g>
     </g>
    </g>
    <g id="xtick_5">
     <g id="line2d_9">
      <path d="M 184.808711 307.584 
L 184.808711 41.472 
" clip-path="url(#pcc13fafe53)" style="fill: none; stroke-dasharray: 2.96,1.28; stroke-dashoffset: 0; stroke: #1a1a1a; stroke-opacity: 0.1; stroke-width: 0.8"/>
     </g>
     <g id="line2d_10">
      <g>
       <use xlink:href="#m35faabb3cc" x="184.808711" y="307.584" style="stroke: #000000; stroke-width: 0.6"/>
      </g>
     </g>
    </g>
    <g id="xtick_6">
     <g id="line2d_11">
      <path d="M 205.28474 307.584 
L 205.28474 41.472 
" clip-path="url(#pcc13fafe53)" style="fill: none; stroke-dasharray: 2.96,1.28; stroke-dashoffset: 0; stroke: #1a1a1a; stroke-opacity: 0.1; stroke-width: 0.8"/>
     </g>
     <g id="line2d_12">
      <g>
       <use xlink:href="#m35faabb3cc" x="205.28474" y="307.584" style="stroke: #000000; stroke-width: 0.6"/>
      </g>
     </g>
    </g>
    <g id="xtick_7">
     <g id="line2d_13">
      <path d="M 222.014873 307.584 
L 222.014873 41.472 
" clip-path="url(#pcc13fafe53)" style="fill: none; stroke-dasharray: 2.96,1.28; stroke-dashoffset: 0; stroke: #1a1a1a; stroke-opacity: 0.1; stroke-width: 0.8"/>
     </g>
     <g id="line2d_14">
      <g>
       <use xlink:href="#m35faabb3cc" x="222.014873" y="307.584" style="stroke: #000000; stroke-width: 0.6"/>
      </g>
     </g>
    </g>
    <g id="xtick_8">
     <g id="line2d_15">
      <path d="M 236.16 307.584 
L 236.16 41.472 
" clip-path="url(#pcc13fafe53)" style="fill: none; stroke-dasharray: 2.96,1.28; stroke-dashoffset: 0; stroke: #1a1a1a; stroke-opacity: 0.1; stroke-width: 0.8"/>
     </g>
     <g id="line2d_16">
      <g>
       <use xlink:href="#m35faabb3cc" x="236.16" y="307.584" style="stroke: #000000; stroke-width: 0.6"/>
      </g>
     </g>
    </g>
    <g id="xtick_9">
     <g id="line2d_17">
      <path d="M 248.413066 307.584 
L 248.413066 41.472 
" clip-path="url(#pcc13fafe53)" style="fill: none; stroke-dasharray: 2.96,1.28; stroke-dashoffset: 0; stroke: #1a1a1a; stroke-opacity: 0.1; stroke-width: 0.8"/>
     </g>
     <g id="line2d_18">
      <g>
       <use xlink:href="#m35faabb3cc" x="248.413066" y="307.584" style="stroke: #000000; stroke-width: 0.6"/>
      </g>
     </g>
    </g>
    <g id="xtick_10">
     <g id="line2d_19">
      <path d="M 259.221036 307.584 
L 259.221036 41.472 
" clip-path="url(#pcc13fafe53)" style="fill: none; stroke-dasharray: 2.96,1.28; stroke-dashoffset: 0; stroke: #1a1a1a; stroke-opacity: 0.1; stroke-width: 0.8"/>
     </g>
     <g id="line2d_20">
      <g>
       <use xlink:href="#m35faabb3cc" x="259.221036" y="307.584" style="stroke: #000000; stroke-width: 0.6"/>
      </g>
     </g>
    </g>
    <g id="xtick_11">
     <g id="line2d_21">
      <path d="M 332.49345 307.584 
L 332.49345 41.472 
" clip-path="url(#pcc13fafe53)" style="fill: none; stroke-dasharray: 2.96,1.28; stroke-dashoffset: 0; stroke: #1a1a1a; stroke-opacity: 0.1; stroke-width: 0.8"/>
     </g>
     <g id="line2d_22">
      <g>
       <use xlink:href="#m35faabb3cc" x="332.49345" y="307.584" style="stroke: #000000; stroke-width: 0.6"/>
      </g>
     </g>
    </g>
    <g id="xtick_12">
     <g id="line2d_23">
      <path d="M 369.699613 307.584 
L 369.699613 41.472 
" clip-path="url(#pcc13fafe53)" style="fill: none; stroke-dasharray: 2.96,1.28; stroke-dashoffset: 0; stroke: #1a1a1a; stroke-opacity: 0.1; stroke-width: 0.8"/>
     </g>
     <g id="line2d_24">
      <g>
       <use xlink:href="#m35faabb3cc" x="369.699613" y="307.584" style="stroke: #000000; stroke-width: 0.6"/>
      </g>
     </g>
    </g>
    <g id="xtick_13">
     <g id="line2d_25">
      <path d="M 396.097806 307.584 
L 396.097806 41.472 
" clip-path="url(#pcc13fafe53)" style="fill: none; stroke-dasharray: 2.96,1.28; stroke-dashoffset: 0; stroke: #1a1a1a; stroke-opacity: 0.1; stroke-width: 0.8"/>
     </g>
     <g id="line2d_26">
      <g>
       <use xlink:href="#m35faabb3cc" x="396.097806" y="307.584" style="stroke: #000000; stroke-width: 0.6"/>
      </g>
     </g>
    </g>
    <g id="text_3">
     <!-- Frequency (Hz) -->
     <g transform="translate(194.684844 336.620406) scale(0.11 -0.11)">
      <defs>
       <path id="DejaVuSans-46" d="M 628 4666 
L 3309 4666 
L 3309 4134 
L 1259 4134 
L 1259 2759 
L 3109 2759 
L 3109 2228 
L 1259 2228 
L 1259 0 
L 628 0 
L 628 4666 
z
" transform="scale(0.015625)"/>
       <path id="DejaVuSans-72" d="M 2631 2963 
Q 2534 3019 2420 3045 
Q 2306 3072 2169 3072 
Q 1681 3072 1420 2755 
Q 1159 2438 1159 1844 
L 1159 0 
L 581 0 
L 581 3500 
L 1159 3500 
L 1159 2956 
Q 1341 3275 1631 3429 
Q 1922 3584 2338 3584 
Q 2397 3584 2469 3576 
Q 2541 3569 2628 3553 
L 2631 2963 
z
" transform="scale(0.015625)"/>
       <path id="DejaVuSans-65" d="M 3597 1894 
L 3597 1613 
L 953 1613 
Q 991 1019 1311 708 
Q 1631 397 2203 397 
Q 2534 397 2845 478 
Q 3156 559 3463 722 
L 3463 178 
Q 3153 47 2828 -22 
Q 2503 -91 2169 -91 
Q 1331 -91 842 396 
Q 353 884 353 1716 
Q 353 2575 817 3079 
Q 1281 3584 2069 3584 
Q 2775 3584 3186 3129 
Q 3597 2675 3597 1894 
z
M 3022 2063 
Q 3016 2534 2758 2815 
Q 2500 3097 2075 3097 
Q 1594 3097 1305 2825 
Q 1016 2553 972 2059 
L 3022 2063 
z
" transform="scale(0.015625)"/>
       <path id="DejaVuSans-71" d="M 947 1747 
Q 947 1113 1208 752 
Q 1469 391 1925 391 
Q 2381 391 2643 752 
Q 2906 1113 2906 1747 
Q 2906 2381 2643 2742 
Q 2381 3103 1925 3103 
Q 1469 3103 1208 2742 
Q 947 2381 947 1747 
z
M 2906 525 
Q 2725 213 2448 61 
Q 2172 -91 1784 -91 
Q 1150 -91 751 415 
Q 353 922 353 1747 
Q 353 2572 751 3078 
Q 1150 3584 1784 3584 
Q 2172 3584 2448 3432 
Q 2725 3281 2906 2969 
L 2906 3500 
L 3481 3500 
L 3481 -1331 
L 2906 -1331 
L 2906 525 
z
" transform="scale(0.015625)"/>
       <path id="DejaVuSans-75" d="M 544 1381 
L 544 3500 
L 1119 3500 
L 1119 1403 
Q 1119 906 1312 657 
Q 1506 409 1894 409 
Q 2359 409 2629 706 
Q 2900 1003 2900 1516 
L 2900 3500 
L 3475 3500 
L 3475 0 
L 2900 0 
L 2900 538 
Q 2691 219 2414 64 
Q 2138 -91 1772 -91 
Q 1169 -91 856 284 
Q 544 659 544 1381 
z
M 1991 3584 
L 1991 3584 
z
" transform="scale(0.015625)"/>
       <path id="DejaVuSans-6e" d="M 3513 2113 
L 3513 0 
L 2938 0 
L 2938 2094 
Q 2938 2591 2744 2837 
Q 2550 3084 2163 3084 
Q 1697 3084 1428 2787 
Q 1159 2491 1159 1978 
L 1159 0 
L 581 0 
L 581 3500 
L 1159 3500 
L 1159 2956 
Q 1366 3272 1645 3428 
Q 1925 3584 2291 3584 
Q 2894 3584 3203 3211 
Q 3513 2838 3513 2113 
z
" transform="scale(0.015625)"/>
       <path id="DejaVuSans-63" d="M 3122 3366 
L 3122 2828 
Q 2878 2963 2633 3030 
Q 2388 3097 2138 3097 
Q 1578 3097 1268 2742 
Q 959 2388 959 1747 
Q 959 1106 1268 751 
Q 1578 397 2138 397 
Q 2388 397 2633 464 
Q 2878 531 3122 666 
L 3122 134 
Q 2881 22 2623 -34 
Q 2366 -91 2075 -91 
Q 1284 -91 818 406 
Q 353 903 353 1747 
Q 353 2603 823 3093 
Q 1294 3584 2113 3584 
Q 2378 3584 2631 3529 
Q 2884 3475 3122 3366 
z
" transform="scale(0.015625)"/>
       <path id="DejaVuSans-79" d="M 2059 -325 
Q 1816 -950 1584 -1140 
Q 1353 -1331 966 -1331 
L 506 -1331 
L 506 -850 
L 844 -850 
Q 1081 -850 1212 -737 
Q 1344 -625 1503 -206 
L 1606 56 
L 191 3500 
L 800 3500 
L 1894 763 
L 2988 3500 
L 3597 3500 
L 2059 -325 
z
" transform="scale(0.015625)"/>
       <path id="DejaVuSans-20" transform="scale(0.015625)"/>
       <path id="DejaVuSans-28" d="M 1984 4856 
Q 1566 4138 1362 3434 
Q 1159 2731 1159 2009 
Q 1159 1288 1364 580 
Q 1569 -128 1984 -844 
L 1484 -844 
Q 1016 -109 783 600 
Q 550 1309 550 2009 
Q 550 2706 781 3412 
Q 1013 4119 1484 4856 
L 1984 4856 
z
" transform="scale(0.015625)"/>
       <path id="DejaVuSans-48" d="M 628 4666 
L 1259 4666 
L 1259 2753 
L 3553 2753 
L 3553 4666 
L 4184 4666 
L 4184 0 
L 3553 0 
L 3553 2222 
L 1259 2222 
L 1259 0 
L 628 0 
L 628 4666 
z
" transform="scale(0.015625)"/>
       <path id="DejaVuSans-7a" d="M 353 3500 
L 3084 3500 
L 3084 2975 
L 922 459 
L 3084 459 
L 3084 0 
L 275 0 
L 275 525 
L 2438 3041 
L 353 3041 
L 353 3500 
z
" transform="scale(0.015625)"/>
       <path id="DejaVuSans-29" d="M 513 4856 
L 1013 4856 
Q 1481 4119 1714 3412 
Q 1947 2706 1947 2009 
Q 1947 1309 1714 600 
Q 1481 -109 1013 -844 
L 513 -844 
Q 928 -128 1133 580 
Q 1338 1288 1338 2009 
Q 1338 2731 1133 3434 
Q 928 4138 513 4856 
z
" transform="scale(0.015625)"/>
      </defs>
      <use xlink:href="#DejaVuSans-46"/>
      <use xlink:href="#DejaVuSans-72" x="50.269531"/>
      <use xlink:href="#DejaVuSans-65" x="89.132812"/>
      <use xlink:href="#DejaVuSans-71" x="150.65625"/>
      <use xlink:href="#DejaVuSans-75" x="214.132812"/>
      <use xlink:href="#DejaVuSans-65" x="277.511719"/>
      <use xlink:href="#DejaVuSans-6e" x="339.035156"/>
      <use xlink:href="#DejaVuSans-63" x="402.414062"/>
      <use xlink:href="#DejaVuSans-79" x="457.394531"/>
      <use xlink:href="#DejaVuSans-20" x="516.574219"/>
      <use xlink:href="#DejaVuSans-28" x="548.361328"/>
      <use xlink:href="#DejaVuSans-48" x="587.375"/>
      <use xlink:href="#DejaVuSans-7a" x="662.570312"/>
      <use xlink:href="#DejaVuSans-29" x="715.060547"/>
     </g>
    </g>
   </g>
   <g id="matplotlib.axis_2">
    <g id="ytick_1">
     <g id="line2d_27">
      <path d="M 57.6 305.945795 
L 414.72 305.945795 
" clip-path="url(#pcc13fafe53)" style="fill: none; stroke-dasharray: 2.96,1.28; stroke-dashoffset: 0; stroke: #1a1a1a; stroke-opacity: 0.1; stroke-width: 0.8"/>
     </g>
     <g id="line2d_28">
      <defs>
       <path id="me9b161e0ea" d="M 0 0 
L -3.5 0 
" style="stroke: #000000; stroke-width: 0.8"/>
      </defs>
      <g>
       <use xlink:href="#me9b161e0ea" x="57.6" y="305.945795" style="stroke: #000000; stroke-width: 0.8"/>
      </g>
     </g>
     <g id="text_4">
      <!-- $\mathdefault{10^{-4}}$ -->
      <g transform="translate(27.1 309.745014) scale(0.1 -0.1)">
       <defs>
        <path id="DejaVuSans-2212" d="M 678 2272 
L 4684 2272 
L 4684 1741 
L 678 1741 
L 678 2272 
z
" transform="scale(0.015625)"/>
        <path id="DejaVuSans-34" d="M 2419 4116 
L 825 1625 
L 2419 1625 
L 2419 4116 
z
M 2253 4666 
L 3047 4666 
L 3047 1625 
L 3713 1625 
L 3713 1100 
L 3047 1100 
L 3047 0 
L 2419 0 
L 2419 1100 
L 313 1100 
L 313 1709 
L 2253 4666 
z
" transform="scale(0.015625)"/>
       </defs>
       <use xlink:href="#DejaVuSans-31" transform="translate(0 0.684375)"/>
       <use xlink:href="#DejaVuSans-30" transform="translate(63.623047 0.684375)"/>
       <use xlink:href="#DejaVuSans-2212" transform="translate(128.203125 38.965625) scale(0.7)"/>
       <use xlink:href="#DejaVuSans-34" transform="translate(186.855469 38.965625) scale(0.7)"/>
      </g>
     </g>
    </g>
    <g id="ytick_2">
     <g id="line2d_29">
      <path d="M 57.6 244.076077 
L 414.72 244.076077 
" clip-path="url(#pcc13fafe53)" style="fill: none; stroke-dasharray: 2.96,1.28; stroke-dashoffset: 0; stroke: #1a1a1a; stroke-opacity: 0.1; stroke-width: 0.8"/>
     </g>
     <g id="line2d_30">
      <g>
       <use xlink:href="#me9b161e0ea" x="57.6" y="244.076077" style="stroke: #000000; stroke-width: 0.8"/>
      </g>
     </g>
     <g id="text_5">
      <!-- $\mathdefault{10^{-3}}$ -->
      <g transform="translate(27.1 247.875296) scale(0.1 -0.1)">
       <defs>
        <path id="DejaVuSans-33" d="M 2597 2516 
Q 3050 2419 3304 2112 
Q 3559 1806 3559 1356 
Q 3559 666 3084 287 
Q 2609 -91 1734 -91 
Q 1441 -91 1130 -33 
Q 819 25 488 141 
L 488 750 
Q 750 597 1062 519 
Q 1375 441 1716 441 
Q 2309 441 2620 675 
Q 2931 909 2931 1356 
Q 2931 1769 2642 2001 
Q 2353 2234 1838 2234 
L 1294 2234 
L 1294 2753 
L 1863 2753 
Q 2328 2753 2575 2939 
Q 2822 3125 2822 3475 
Q 2822 3834 2567 4026 
Q 2313 4219 1838 4219 
Q 1578 4219 1281 4162 
Q 984 4106 628 3988 
L 628 4550 
Q 988 4650 1302 4700 
Q 1616 4750 1894 4750 
Q 2613 4750 3031 4423 
Q 3450 4097 3450 3541 
Q 3450 3153 3228 2886 
Q 3006 2619 2597 2516 
z
" transform="scale(0.015625)"/>
       </defs>
       <use xlink:href="#DejaVuSans-31" transform="translate(0 0.765625)"/>
       <use xlink:href="#DejaVuSans-30" transform="translate(63.623047 0.765625)"/>
       <use xlink:href="#DejaVuSans-2212" transform="translate(128.203125 39.046875) scale(0.7)"/>
       <use xlink:href="#DejaVuSans-33" transform="translate(186.855469 39.046875) scale(0.7)"/>
      </g>
     </g>
    </g>
    <g id="ytick_3">
     <g id="line2d_31">
      <path d="M 57.6 182.206358 
L 414.72 182.206358 
" clip-path="url(#pcc13fafe53)" style="fill: none; stroke-dasharray: 2.96,1.28; stroke-dashoffset: 0; stroke: #1a1a1a; stroke-opacity: 0.1; stroke-width: 0.8"/>
     </g>
     <g id="line2d_32">
      <g>
       <use xlink:href="#me9b161e0ea" x="57.6" y="182.206358" style="stroke: #000000; stroke-width: 0.8"/>
      </g>
     </g>
     <g id="text_6">
      <!-- $\mathdefault{10^{-2}}$ -->
      <g transform="translate(27.1 186.005577) scale(0.1 -0.1)">
       <defs>
        <path id="DejaVuSans-32" d="M 1228 531 
L 3431 531 
L 3431 0 
L 469 0 
L 469 531 
Q 828 903 1448 1529 
Q 2069 2156 2228 2338 
Q 2531 2678 2651 2914 
Q 2772 3150 2772 3378 
Q 2772 3750 2511 3984 
Q 2250 4219 1831 4219 
Q 1534 4219 1204 4116 
Q 875 4013 500 3803 
L 500 4441 
Q 881 4594 1212 4672 
Q 1544 4750 1819 4750 
Q 2544 4750 2975 4387 
Q 3406 4025 3406 3419 
Q 3406 3131 3298 2873 
Q 3191 2616 2906 2266 
Q 2828 2175 2409 1742 
Q 1991 1309 1228 531 
z
" transform="scale(0.015625)"/>
       </defs>
       <use xlink:href="#DejaVuSans-31" transform="translate(0 0.765625)"/>
       <use xlink:href="#DejaVuSans-30" transform="translate(63.623047 0.765625)"/>
       <use xlink:href="#DejaVuSans-2212" transform="translate(128.203125 39.046875) scale(0.7)"/>
       <use xlink:href="#DejaVuSans-32" transform="translate(186.855469 39.046875) scale(0.7)"/>
      </g>
     </g>
    </g>
    <g id="ytick_4">
     <g id="line2d_33">
      <path d="M 57.6 120.33664 
L 414.72 120.33664 
" clip-path="url(#pcc13fafe53)" style="fill: none; stroke-dasharray: 2.96,1.28; stroke-dashoffset: 0; stroke: #1a1a1a; stroke-opacity: 0.1; stroke-width: 0.8"/>
     </g>
     <g id="line2d_34">
      <g>
       <use xlink:href="#me9b161e0ea" x="57.6" y="120.33664" style="stroke: #000000; stroke-width: 0.8"/>
      </g>
     </g>
     <g id="text_7">
      <!-- $\mathdefault{10^{-1}}$ -->
      <g transform="translate(27.1 124.135859) scale(0.1 -0.1)">
       <use xlink:href="#DejaVuSans-31" transform="translate(0 0.684375)"/>
       <use xlink:href="#DejaVuSans-30" transform="translate(63.623047 0.684375)"/>
       <use xlink:href="#DejaVuSans-2212" transform="translate(128.203125 38.965625) scale(0.7)"/>
       <use xlink:href="#DejaVuSans-31" transform="translate(186.855469 38.965625) scale(0.7)"/>
      </g>
     </g>
    </g>
    <g id="ytick_5">
     <g id="line2d_35">
      <path d="M 57.6 58.466921 
L 414.72 58.466921 
" clip-path="url(#pcc13fafe53)" style="fill: none; stroke-dasharray: 2.96,1.28; stroke-dashoffset: 0; stroke: #1a1a1a; stroke-opacity: 0.1; stroke-width: 0.8"/>
     </g>
     <g id="line2d_36">
      <g>
       <use xlink:href="#me9b161e0ea" x="57.6" y="58.466921" style="stroke: #000000; stroke-width: 0.8"/>
      </g>
     </g>
     <g id="text_8">
      <!-- $\mathdefault{10^{0}}$ -->
      <g transform="translate(33 62.26614) scale(0.1 -0.1)">
       <use xlink:href="#DejaVuSans-31" transform="translate(0 0.765625)"/>
       <use xlink:href="#DejaVuSans-30" transform="translate(63.623047 0.765625)"/>
       <use xlink:href="#DejaVuSans-30" transform="translate(128.203125 39.046875) scale(0.7)"/>
      </g>
     </g>
    </g>
    <g id="ytick_6">
     <g id="line2d_37">
      <path d="M 57.6 287.321154 
L 414.72 287.321154 
" clip-path="url(#pcc13fafe53)" style="fill: none; stroke-dasharray: 2.96,1.28; stroke-dashoffset: 0; stroke: #1a1a1a; stroke-opacity: 0.1; stroke-width: 0.8"/>
     </g>
     <g id="line2d_38">
      <defs>
       <path id="m17c2b78f10" d="M 0 0 
L -2 0 
" style="stroke: #000000; stroke-width: 0.6"/>
      </defs>
      <g>
       <use xlink:href="#m17c2b78f10" x="57.6" y="287.321154" style="stroke: #000000; stroke-width: 0.6"/>
      </g>
     </g>
    </g>
    <g id="ytick_7">
     <g id="line2d_39">
      <path d="M 57.6 276.426438 
L 414.72 276.426438 
" clip-path="url(#pcc13fafe53)" style="fill: none; stroke-dasharray: 2.96,1.28; stroke-dashoffset: 0; stroke: #1a1a1a; stroke-opacity: 0.1; stroke-width: 0.8"/>
     </g>
     <g id="line2d_40">
      <g>
       <use xlink:href="#m17c2b78f10" x="57.6" y="276.426438" style="stroke: #000000; stroke-width: 0.6"/>
      </g>
     </g>
    </g>
    <g id="ytick_8">
     <g id="line2d_41">
      <path d="M 57.6 268.696513 
L 414.72 268.696513 
" clip-path="url(#pcc13fafe53)" style="fill: none; stroke-dasharray: 2.96,1.28; stroke-dashoffset: 0; stroke: #1a1a1a; stroke-opacity: 0.1; stroke-width: 0.8"/>
     </g>
     <g id="line2d_42">
      <g>
       <use xlink:href="#m17c2b78f10" x="57.6" y="268.696513" style="stroke: #000000; stroke-width: 0.6"/>
      </g>
     </g>
    </g>
    <g id="ytick_9">
     <g id="line2d_43">
      <path d="M 57.6 262.700718 
L 414.72 262.700718 
" clip-path="url(#pcc13fafe53)" style="fill: none; stroke-dasharray: 2.96,1.28; stroke-dashoffset: 0; stroke: #1a1a1a; stroke-opacity: 0.1; stroke-width: 0.8"/>
     </g>
     <g id="line2d_44">
      <g>
       <use xlink:href="#m17c2b78f10" x="57.6" y="262.700718" style="stroke: #000000; stroke-width: 0.6"/>
      </g>
     </g>
    </g>
    <g id="ytick_10">
     <g id="line2d_45">
      <path d="M 57.6 257.801797 
L 414.72 257.801797 
" clip-path="url(#pcc13fafe53)" style="fill: none; stroke-dasharray: 2.96,1.28; stroke-dashoffset: 0; stroke: #1a1a1a; stroke-opacity: 0.1; stroke-width: 0.8"/>
     </g>
     <g id="line2d_46">
      <g>
       <use xlink:href="#m17c2b78f10" x="57.6" y="257.801797" style="stroke: #000000; stroke-width: 0.6"/>
      </g>
     </g>
    </g>
    <g id="ytick_11">
     <g id="line2d_47">
      <path d="M 57.6 253.659818 
L 414.72 253.659818 
" clip-path="url(#pcc13fafe53)" style="fill: none; stroke-dasharray: 2.96,1.28; stroke-dashoffset: 0; stroke: #1a1a1a; stroke-opacity: 0.1; stroke-width: 0.8"/>
     </g>
     <g id="line2d_48">
      <g>
       <use xlink:href="#m17c2b78f10" x="57.6" y="253.659818" style="stroke: #000000; stroke-width: 0.6"/>
      </g>
     </g>
    </g>
    <g id="ytick_12">
     <g id="line2d_49">
      <path d="M 57.6 250.071872 
L 414.72 250.071872 
" clip-path="url(#pcc13fafe53)" style="fill: none; stroke-dasharray: 2.96,1.28; stroke-dashoffset: 0; stroke: #1a1a1a; stroke-opacity: 0.1; stroke-width: 0.8"/>
     </g>
     <g id="line2d_50">
      <g>
       <use xlink:href="#m17c2b78f10" x="57.6" y="250.071872" style="stroke: #000000; stroke-width: 0.6"/>
      </g>
     </g>
    </g>
    <g id="ytick_13">
     <g id="line2d_51">
      <path d="M 57.6 246.90708 
L 414.72 246.90708 
" clip-path="url(#pcc13fafe53)" style="fill: none; stroke-dasharray: 2.96,1.28; stroke-dashoffset: 0; stroke: #1a1a1a; stroke-opacity: 0.1; stroke-width: 0.8"/>
     </g>
     <g id="line2d_52">
      <g>
       <use xlink:href="#m17c2b78f10" x="57.6" y="246.90708" style="stroke: #000000; stroke-width: 0.6"/>
      </g>
     </g>
    </g>
    <g id="ytick_14">
     <g id="line2d_53">
      <path d="M 57.6 225.451436 
L 414.72 225.451436 
" clip-path="url(#pcc13fafe53)" style="fill: none; stroke-dasharray: 2.96,1.28; stroke-dashoffset: 0; stroke: #1a1a1a; stroke-opacity: 0.1; stroke-width: 0.8"/>
     </g>
     <g id="line2d_54">
      <g>
       <use xlink:href="#m17c2b78f10" x="57.6" y="225.451436" style="stroke: #000000; stroke-width: 0.6"/>
      </g>
     </g>
    </g>
    <g id="ytick_15">
     <g id="line2d_55">
      <path d="M 57.6 214.556719 
L 414.72 214.556719 
" clip-path="url(#pcc13fafe53)" style="fill: none; stroke-dasharray: 2.96,1.28; stroke-dashoffset: 0; stroke: #1a1a1a; stroke-opacity: 0.1; stroke-width: 0.8"/>
     </g>
     <g id="line2d_56">
      <g>
       <use xlink:href="#m17c2b78f10" x="57.6" y="214.556719" style="stroke: #000000; stroke-width: 0.6"/>
      </g>
     </g>
    </g>
    <g id="ytick_16">
     <g id="line2d_57">
      <path d="M 57.6 206.826795 
L 414.72 206.826795 
" clip-path="url(#pcc13fafe53)" style="fill: none; stroke-dasharray: 2.96,1.28; stroke-dashoffset: 0; stroke: #1a1a1a; stroke-opacity: 0.1; stroke-width: 0.8"/>
     </g>
     <g id="line2d_58">
      <g>
       <use xlink:href="#m17c2b78f10" x="57.6" y="206.826795" style="stroke: #000000; stroke-width: 0.6"/>
      </g>
     </g>
    </g>
    <g id="ytick_17">
     <g id="line2d_59">
      <path d="M 57.6 200.830999 
L 414.72 200.830999 
" clip-path="url(#pcc13fafe53)" style="fill: none; stroke-dasharray: 2.96,1.28; stroke-dashoffset: 0; stroke: #1a1a1a; stroke-opacity: 0.1; stroke-width: 0.8"/>
     </g>
     <g id="line2d_60">
      <g>
       <use xlink:href="#m17c2b78f10" x="57.6" y="200.830999" style="stroke: #000000; stroke-width: 0.6"/>
      </g>
     </g>
    </g>
    <g id="ytick_18">
     <g id="line2d_61">
      <path d="M 57.6 195.932078 
L 414.72 195.932078 
" clip-path="url(#pcc13fafe53)" style="fill: none; stroke-dasharray: 2.96,1.28; stroke-dashoffset: 0; stroke: #1a1a1a; stroke-opacity: 0.1; stroke-width: 0.8"/>
     </g>
     <g id="line2d_62">
      <g>
       <use xlink:href="#m17c2b78f10" x="57.6" y="195.932078" style="stroke: #000000; stroke-width: 0.6"/>
      </g>
     </g>
    </g>
    <g id="ytick_19">
     <g id="line2d_63">
      <path d="M 57.6 191.790099 
L 414.72 191.790099 
" clip-path="url(#pcc13fafe53)" style="fill: none; stroke-dasharray: 2.96,1.28; stroke-dashoffset: 0; stroke: #1a1a1a; stroke-opacity: 0.1; stroke-width: 0.8"/>
     </g>
     <g id="line2d_64">
      <g>
       <use xlink:href="#m17c2b78f10" x="57.6" y="191.790099" style="stroke: #000000; stroke-width: 0.6"/>
      </g>
     </g>
    </g>
    <g id="ytick_20">
     <g id="line2d_65">
      <path d="M 57.6 188.202154 
L 414.72 188.202154 
" clip-path="url(#pcc13fafe53)" style="fill: none; stroke-dasharray: 2.96,1.28; stroke-dashoffset: 0; stroke: #1a1a1a; stroke-opacity: 0.1; stroke-width: 0.8"/>
     </g>
     <g id="line2d_66">
      <g>
       <use xlink:href="#m17c2b78f10" x="57.6" y="188.202154" style="stroke: #000000; stroke-width: 0.6"/>
      </g>
     </g>
    </g>
    <g id="ytick_21">
     <g id="line2d_67">
      <path d="M 57.6 185.037361 
L 414.72 185.037361 
" clip-path="url(#pcc13fafe53)" style="fill: none; stroke-dasharray: 2.96,1.28; stroke-dashoffset: 0; stroke: #1a1a1a; stroke-opacity: 0.1; stroke-width: 0.8"/>
     </g>
     <g id="line2d_68">
      <g>
       <use xlink:href="#m17c2b78f10" x="57.6" y="185.037361" style="stroke: #000000; stroke-width: 0.6"/>
      </g>
     </g>
    </g>
    <g id="ytick_22">
     <g id="line2d_69">
      <path d="M 57.6 163.581717 
L 414.72 163.581717 
" clip-path="url(#pcc13fafe53)" style="fill: none; stroke-dasharray: 2.96,1.28; stroke-dashoffset: 0; stroke: #1a1a1a; stroke-opacity: 0.1; stroke-width: 0.8"/>
     </g>
     <g id="line2d_70">
      <g>
       <use xlink:href="#m17c2b78f10" x="57.6" y="163.581717" style="stroke: #000000; stroke-width: 0.6"/>
      </g>
     </g>
    </g>
    <g id="ytick_23">
     <g id="line2d_71">
      <path d="M 57.6 152.687001 
L 414.72 152.687001 
" clip-path="url(#pcc13fafe53)" style="fill: none; stroke-dasharray: 2.96,1.28; stroke-dashoffset: 0; stroke: #1a1a1a; stroke-opacity: 0.1; stroke-width: 0.8"/>
     </g>
     <g id="line2d_72">
      <g>
       <use xlink:href="#m17c2b78f10" x="57.6" y="152.687001" style="stroke: #000000; stroke-width: 0.6"/>
      </g>
     </g>
    </g>
    <g id="ytick_24">
     <g id="line2d_73">
      <path d="M 57.6 144.957076 
L 414.72 144.957076 
" clip-path="url(#pcc13fafe53)" style="fill: none; stroke-dasharray: 2.96,1.28; stroke-dashoffset: 0; stroke: #1a1a1a; stroke-opacity: 0.1; stroke-width: 0.8"/>
     </g>
     <g id="line2d_74">
      <g>
       <use xlink:href="#m17c2b78f10" x="57.6" y="144.957076" style="stroke: #000000; stroke-width: 0.6"/>
      </g>
     </g>
    </g>
    <g id="ytick_25">
     <g id="line2d_75">
      <path d="M 57.6 138.961281 
L 414.72 138.961281 
" clip-path="url(#pcc13fafe53)" style="fill: none; stroke-dasharray: 2.96,1.28; stroke-dashoffset: 0; stroke: #1a1a1a; stroke-opacity: 0.1; stroke-width: 0.8"/>
     </g>
     <g id="line2d_76">
      <g>
       <use xlink:href="#m17c2b78f10" x="57.6" y="138.961281" style="stroke: #000000; stroke-width: 0.6"/>
      </g>
     </g>
    </g>
    <g id="ytick_26">
     <g id="line2d_77">
      <path d="M 57.6 134.06236 
L 414.72 134.06236 
" clip-path="url(#pcc13fafe53)" style="fill: none; stroke-dasharray: 2.96,1.28; stroke-dashoffset: 0; stroke: #1a1a1a; stroke-opacity: 0.1; stroke-width: 0.8"/>
     </g>
     <g id="line2d_78">
      <g>
       <use xlink:href="#m17c2b78f10" x="57.6" y="134.06236" style="stroke: #000000; stroke-width: 0.6"/>
      </g>
     </g>
    </g>
    <g id="ytick_27">
     <g id="line2d_79">
      <path d="M 57.6 129.920381 
L 414.72 129.920381 
" clip-path="url(#pcc13fafe53)" style="fill: none; stroke-dasharray: 2.96,1.28; stroke-dashoffset: 0; stroke: #1a1a1a; stroke-opacity: 0.1; stroke-width: 0.8"/>
     </g>
     <g id="line2d_80">
      <g>
       <use xlink:href="#m17c2b78f10" x="57.6" y="129.920381" style="stroke: #000000; stroke-width: 0.6"/>
      </g>
     </g>
    </g>
    <g id="ytick_28">
     <g id="line2d_81">
      <path d="M 57.6 126.332435 
L 414.72 126.332435 
" clip-path="url(#pcc13fafe53)" style="fill: none; stroke-dasharray: 2.96,1.28; stroke-dashoffset: 0; stroke: #1a1a1a; stroke-opacity: 0.1; stroke-width: 0.8"/>
     </g>
     <g id="line2d_82">
      <g>
       <use xlink:href="#m17c2b78f10" x="57.6" y="126.332435" style="stroke: #000000; stroke-width: 0.6"/>
      </g>
     </g>
    </g>
    <g id="ytick_29">
     <g id="line2d_83">
      <path d="M 57.6 123.167643 
L 414.72 123.167643 
" clip-path="url(#pcc13fafe53)" style="fill: none; stroke-dasharray: 2.96,1.28; stroke-dashoffset: 0; stroke: #1a1a1a; stroke-opacity: 0.1; stroke-width: 0.8"/>
     </g>
     <g id="line2d_84">
      <g>
       <use xlink:href="#m17c2b78f10" x="57.6" y="123.167643" style="stroke: #000000; stroke-width: 0.6"/>
      </g>
     </g>
    </g>
    <g id="ytick_30">
     <g id="line2d_85">
      <path d="M 57.6 101.711999 
L 414.72 101.711999 
" clip-path="url(#pcc13fafe53)" style="fill: none; stroke-dasharray: 2.96,1.28; stroke-dashoffset: 0; stroke: #1a1a1a; stroke-opacity: 0.1; stroke-width: 0.8"/>
     </g>
     <g id="line2d_86">
      <g>
       <use xlink:href="#m17c2b78f10" x="57.6" y="101.711999" style="stroke: #000000; stroke-width: 0.6"/>
      </g>
     </g>
    </g>
    <g id="ytick_31">
     <g id="line2d_87">
      <path d="M 57.6 90.817282 
L 414.72 90.817282 
" clip-path="url(#pcc13fafe53)" style="fill: none; stroke-dasharray: 2.96,1.28; stroke-dashoffset: 0; stroke: #1a1a1a; stroke-opacity: 0.1; stroke-width: 0.8"/>
     </g>
     <g id="line2d_88">
      <g>
       <use xlink:href="#m17c2b78f10" x="57.6" y="90.817282" style="stroke: #000000; stroke-width: 0.6"/>
      </g>
     </g>
    </g>
    <g id="ytick_32">
     <g id="line2d_89">
      <path d="M 57.6 83.087358 
L 414.72 83.087358 
" clip-path="url(#pcc13fafe53)" style="fill: none; stroke-dasharray: 2.96,1.28; stroke-dashoffset: 0; stroke: #1a1a1a; stroke-opacity: 0.1; stroke-width: 0.8"/>
     </g>
     <g id="line2d_90">
      <g>
       <use xlink:href="#m17c2b78f10" x="57.6" y="83.087358" style="stroke: #000000; stroke-width: 0.6"/>
      </g>
     </g>
    </g>
    <g id="ytick_33">
     <g id="line2d_91">
      <path d="M 57.6 77.091562 
L 414.72 77.091562 
" clip-path="url(#pcc13fafe53)" style="fill: none; stroke-dasharray: 2.96,1.28; stroke-dashoffset: 0; stroke: #1a1a1a; stroke-opacity: 0.1; stroke-width: 0.8"/>
     </g>
     <g id="line2d_92">
      <g>
       <use xlink:href="#m17c2b78f10" x="57.6" y="77.091562" style="stroke: #000000; stroke-width: 0.6"/>
      </g>
     </g>
    </g>
    <g id="ytick_34">
     <g id="line2d_93">
      <path d="M 57.6 72.192641 
L 414.72 72.192641 
" clip-path="url(#pcc13fafe53)" style="fill: none; stroke-dasharray: 2.96,1.28; stroke-dashoffset: 0; stroke: #1a1a1a; stroke-opacity: 0.1; stroke-width: 0.8"/>
     </g>
     <g id="line2d_94">
      <g>
       <use xlink:href="#m17c2b78f10" x="57.6" y="72.192641" style="stroke: #000000; stroke-width: 0.6"/>
      </g>
     </g>
    </g>
    <g id="ytick_35">
     <g id="line2d_95">
      <path d="M 57.6 68.050662 
L 414.72 68.050662 
" clip-path="url(#pcc13fafe53)" style="fill: none; stroke-dasharray: 2.96,1.28; stroke-dashoffset: 0; stroke: #1a1a1a; stroke-opacity: 0.1; stroke-width: 0.8"/>
     </g>
     <g id="line2d_96">
      <g>
       <use xlink:href="#m17c2b78f10" x="57.6" y="68.050662" style="stroke: #000000; stroke-width: 0.6"/>
      </g>
     </g>
    </g>
    <g id="ytick_36">
     <g id="line2d_97">
      <path d="M 57.6 64.462717 
L 414.72 64.462717 
" clip-path="url(#pcc13fafe53)" style="fill: none; stroke-dasharray: 2.96,1.28; stroke-dashoffset: 0; stroke: #1a1a1a; stroke-opacity: 0.1; stroke-width: 0.8"/>
     </g>
     <g id="line2d_98">
      <g>
       <use xlink:href="#m17c2b78f10" x="57.6" y="64.462717" style="stroke: #000000; stroke-width: 0.6"/>
      </g>
     </g>
    </g>
    <g id="ytick_37">
     <g id="line2d_99">
      <path d="M 57.6 61.297924 
L 414.72 61.297924 
" clip-path="url(#pcc13fafe53)" style="fill: none; stroke-dasharray: 2.96,1.28; stroke-dashoffset: 0; stroke: #1a1a1a; stroke-opacity: 0.1; stroke-width: 0.8"/>
     </g>
     <g id="line2d_100">
      <g>
       <use xlink:href="#m17c2b78f10" x="57.6" y="61.297924" style="stroke: #000000; stroke-width: 0.6"/>
      </g>
     </g>
    </g>
    <g id="text_9">
     <!-- Acceleration rms (m/s²) -->
     <g transform="translate(20.812344 239.160734) rotate(-90) scale(0.11 -0.11)">
      <defs>
       <path id="DejaVuSans-41" d="M 2188 4044 
L 1331 1722 
L 3047 1722 
L 2188 4044 
z
M 1831 4666 
L 2547 4666 
L 4325 0 
L 3669 0 
L 3244 1197 
L 1141 1197 
L 716 0 
L 50 0 
L 1831 4666 
z
" transform="scale(0.015625)"/>
       <path id="DejaVuSans-6c" d="M 603 4863 
L 1178 4863 
L 1178 0 
L 603 0 
L 603 4863 
z
" transform="scale(0.015625)"/>
       <path id="DejaVuSans-61" d="M 2194 1759 
Q 1497 1759 1228 1600 
Q 959 1441 959 1056 
Q 959 750 1161 570 
Q 1363 391 1709 391 
Q 2188 391 2477 730 
Q 2766 1069 2766 1631 
L 2766 1759 
L 2194 1759 
z
M 3341 1997 
L 3341 0 
L 2766 0 
L 2766 531 
Q 2569 213 2275 61 
Q 1981 -91 1556 -91 
Q 1019 -91 701 211 
Q 384 513 384 1019 
Q 384 1609 779 1909 
Q 1175 2209 1959 2209 
L 2766 2209 
L 2766 2266 
Q 2766 2663 2505 2880 
Q 2244 3097 1772 3097 
Q 1472 3097 1187 3025 
Q 903 2953 641 2809 
L 641 3341 
Q 956 3463 1253 3523 
Q 1550 3584 1831 3584 
Q 2591 3584 2966 3190 
Q 3341 2797 3341 1997 
z
" transform="scale(0.015625)"/>
       <path id="DejaVuSans-74" d="M 1172 4494 
L 1172 3500 
L 2356 3500 
L 2356 3053 
L 1172 3053 
L 1172 1153 
Q 1172 725 1289 603 
Q 1406 481 1766 481 
L 2356 481 
L 2356 0 
L 1766 0 
Q 1100 0 847 248 
Q 594 497 594 1153 
L 594 3053 
L 172 3053 
L 172 3500 
L 594 3500 
L 594 4494 
L 1172 4494 
z
" transform="scale(0.015625)"/>
       <path id="DejaVuSans-69" d="M 603 3500 
L 1178 3500 
L 1178 0 
L 603 0 
L 603 3500 
z
M 603 4863 
L 1178 4863 
L 1178 4134 
L 603 4134 
L 603 4863 
z
" transform="scale(0.015625)"/>
       <path id="DejaVuSans-6f" d="M 1959 3097 
Q 1497 3097 1228 2736 
Q 959 2375 959 1747 
Q 959 1119 1226 758 
Q 1494 397 1959 397 
Q 2419 397 2687 759 
Q 2956 1122 2956 1747 
Q 2956 2369 2687 2733 
Q 2419 3097 1959 3097 
z
M 1959 3584 
Q 2709 3584 3137 3096 
Q 3566 2609 3566 1747 
Q 3566 888 3137 398 
Q 2709 -91 1959 -91 
Q 1206 -91 779 398 
Q 353 888 353 1747 
Q 353 2609 779 3096 
Q 1206 3584 1959 3584 
z
" transform="scale(0.015625)"/>
       <path id="DejaVuSans-6d" d="M 3328 2828 
Q 3544 3216 3844 3400 
Q 4144 3584 4550 3584 
Q 5097 3584 5394 3201 
Q 5691 2819 5691 2113 
L 5691 0 
L 5113 0 
L 5113 2094 
Q 5113 2597 4934 2840 
Q 4756 3084 4391 3084 
Q 3944 3084 3684 2787 
Q 3425 2491 3425 1978 
L 3425 0 
L 2847 0 
L 2847 2094 
Q 2847 2600 2669 2842 
Q 2491 3084 2119 3084 
Q 1678 3084 1418 2786 
Q 1159 2488 1159 1978 
L 1159 0 
L 581 0 
L 581 3500 
L 1159 3500 
L 1159 2956 
Q 1356 3278 1631 3431 
Q 1906 3584 2284 3584 
Q 2666 3584 2933 3390 
Q 3200 3197 3328 2828 
z
" transform="scale(0.015625)"/>
       <path id="DejaVuSans-73" d="M 2834 3397 
L 2834 2853 
Q 2591 2978 2328 3040 
Q 2066 3103 1784 3103 
Q 1356 3103 1142 2972 
Q 928 2841 928 2578 
Q 928 2378 1081 2264 
Q 1234 2150 1697 2047 
L 1894 2003 
Q 2506 1872 2764 1633 
Q 3022 1394 3022 966 
Q 3022 478 2636 193 
Q 2250 -91 1575 -91 
Q 1294 -91 989 -36 
Q 684 19 347 128 
L 347 722 
Q 666 556 975 473 
Q 1284 391 1588 391 
Q 1994 391 2212 530 
Q 2431 669 2431 922 
Q 2431 1156 2273 1281 
Q 2116 1406 1581 1522 
L 1381 1569 
Q 847 1681 609 1914 
Q 372 2147 372 2553 
Q 372 3047 722 3315 
Q 1072 3584 1716 3584 
Q 2034 3584 2315 3537 
Q 2597 3491 2834 3397 
z
" transform="scale(0.015625)"/>
       <path id="DejaVuSans-2f" d="M 1625 4666 
L 2156 4666 
L 531 -594 
L 0 -594 
L 1625 4666 
z
" transform="scale(0.015625)"/>
       <path id="DejaVuSans-b2" d="M 838 2444 
L 2163 2444 
L 2163 2088 
L 294 2088 
L 294 2431 
Q 400 2528 597 2703 
Q 1672 3656 1672 3950 
Q 1672 4156 1509 4282 
Q 1347 4409 1081 4409 
Q 919 4409 728 4354 
Q 538 4300 313 4191 
L 313 4575 
Q 553 4663 761 4706 
Q 969 4750 1147 4750 
Q 1600 4750 1872 4544 
Q 2144 4338 2144 4000 
Q 2144 3566 1109 2678 
Q 934 2528 838 2444 
z
" transform="scale(0.015625)"/>
      </defs>
      <use xlink:href="#DejaVuSans-41"/>
      <use xlink:href="#DejaVuSans-63" x="66.658203"/>
      <use xlink:href="#DejaVuSans-63" x="121.638672"/>
      <use xlink:href="#DejaVuSans-65" x="176.619141"/>
      <use xlink:href="#DejaVuSans-6c" x="238.142578"/>
      <use xlink:href="#DejaVuSans-65" x="265.925781"/>
      <use xlink:href="#DejaVuSans-72" x="327.449219"/>
      <use xlink:href="#DejaVuSans-61" x="368.5625"/>
      <use xlink:href="#DejaVuSans-74" x="429.841797"/>
      <use xlink:href="#DejaVuSans-69" x="469.050781"/>
      <use xlink:href="#DejaVuSans-6f" x="496.833984"/>
      <use xlink:href="#DejaVuSans-6e" x="558.015625"/>
      <use xlink:href="#DejaVuSans-20" x="621.394531"/>
      <use xlink:href="#DejaVuSans-72" x="653.181641"/>
      <use xlink:href="#DejaVuSans-6d" x="692.544922"/>
      <use xlink:href="#DejaVuSans-73" x="789.957031"/>
      <use xlink:href="#DejaVuSans-20" x="842.056641"/>
      <use xlink:href="#DejaVuSans-28" x="873.84375"/>
      <use xlink:href="#DejaVuSans-6d" x="912.857422"/>
      <use xlink:href="#DejaVuSans-2f" x="1010.269531"/>
      <use xlink:href="#DejaVuSans-73" x="1043.960938"/>
      <use xlink:href="#DejaVuSans-b2" x="1096.060547"/>
      <use xlink:href="#DejaVuSans-29" x="1136.148438"/>
     </g>
    </g>
   </g>
   <g id="line2d_101">
    <path d="M 57.6 182.206358 
L 78.076029 185.217092 
L 100.728326 188.506151 
L 121.204355 191.522737 
L 141.680384 194.535937 
L 162.887586 197.642334 
L 184.808711 200.830999 
L 205.28474 200.830999 
L 226.491941 200.830999 
L 248.413066 200.830999 
L 268.889095 194.835204 
L 289.365124 188.848009 
L 312.017421 182.206358 
L 332.49345 176.210563 
L 352.969479 170.257794 
L 374.176681 163.987816 
L 396.097806 157.585922 
L 416.573835 151.54717 
L 437.781036 145.363175 
L 459.702161 138.961281 
" clip-path="url(#pcc13fafe53)" style="fill: none; stroke-dasharray: 6,6; stroke-dashoffset: 0; stroke: #ff0000; stroke-width: 1.2"/>
   </g>
   <g id="line2d_102">
    <path d="M 57.6 163.581717 
L 78.076029 166.592451 
L 100.728326 169.88151 
L 121.204355 172.898096 
L 141.680384 175.911296 
L 162.887586 179.017693 
L 184.808711 182.206358 
L 205.28474 182.206358 
L 226.491941 182.206358 
L 248.413066 182.206358 
L 268.889095 176.210563 
L 289.365124 170.223368 
L 312.017421 163.581717 
L 332.49345 157.585922 
L 352.969479 151.633153 
L 374.176681 145.363175 
L 396.097806 138.961281 
L 416.573835 132.922529 
L 437.781036 126.738534 
L 459.702161 120.33664 
" clip-path="url(#pcc13fafe53)" style="fill: none; stroke-dasharray: 12,6; stroke-dashoffset: 0; stroke: #ff0000; stroke-width: 1.2"/>
   </g>
   <g id="line2d_103">
    <path d="M 57.6 144.957076 
L 78.076029 147.96781 
L 100.728326 151.256869 
L 121.204355 154.273455 
L 141.680384 157.286654 
L 162.887586 160.393052 
L 184.808711 163.581717 
L 205.28474 163.581717 
L 226.491941 163.581717 
L 248.413066 163.581717 
L 268.889095 157.585922 
L 289.365124 151.598727 
L 312.017421 144.957076 
L 332.49345 138.961281 
L 352.969479 133.008512 
L 374.176681 126.738534 
L 396.097806 120.33664 
L 416.573835 114.297888 
L 437.781036 108.113893 
L 459.702161 101.711999 
" clip-path="url(#pcc13fafe53)" style="fill: none; stroke-dasharray: 18,6; stroke-dashoffset: 0; stroke: #ff0000; stroke-width: 1.2"/>
   </g>
   <g id="line2d_104">
    <path d="M 57.6 126.332435 
L 78.076029 129.343169 
L 100.728326 132.632227 
L 121.204355 135.648814 
L 141.680384 138.662013 
L 162.887586 141.768411 
L 184.808711 144.957076 
L 205.28474 144.957076 
L 226.491941 144.957076 
L 248.413066 144.957076 
L 268.889095 138.961281 
L 289.365124 132.974085 
L 312.017421 126.332435 
L 332.49345 120.33664 
L 352.969479 114.383871 
L 374.176681 108.113893 
L 396.097806 101.711999 
L 416.573835 95.673246 
L 437.781036 89.489252 
L 459.702161 83.087358 
" clip-path="url(#pcc13fafe53)" style="fill: none; stroke-dasharray: 24,6; stroke-dashoffset: 0; stroke: #ff0000; stroke-width: 1.2"/>
   </g>
   <g id="line2d_105">
    <path d="M 57.6 96.813077 
L 78.076029 99.823811 
L 100.728326 103.11287 
L 121.204355 106.129456 
L 141.680384 109.142656 
L 162.887586 112.249053 
L 184.808711 115.437718 
L 205.28474 115.437718 
L 226.491941 115.437718 
L 248.413066 115.437718 
L 268.889095 109.441923 
L 289.365124 103.454728 
L 312.017421 96.813077 
L 332.49345 90.817282 
L 352.969479 84.864513 
L 374.176681 78.594535 
L 396.097806 72.192641 
L 416.573835 66.153889 
L 437.781036 59.969894 
L 459.702161 53.568 
" clip-path="url(#pcc13fafe53)" style="fill: none; stroke-dasharray: 30,6; stroke-dashoffset: 0; stroke: #ff0000; stroke-width: 1.2"/>
   </g>
   <g id="line2d_106">
    <path d="M -1 247.814057 
L 1.13956 242.03164 
L 7.939832 255.945019 
L 14.270735 221.300113 
L 20.192898 231.089851 
L 25.755916 242.537012 
L 31.000868 225.322243 
L 35.962168 246.968741 
L 40.668927 239.867315 
L 45.145995 234.974831 
L 49.41475 230.614692 
L 53.493719 237.029738 
L 57.399061 228.341055 
L 61.144956 217.904159 
L 64.743915 229.270889 
L 68.207031 273.222647 
L 71.544188 227.756318 
L 74.764226 223.351359 
L 77.87509 243.285493 
L 80.883939 217.035163 
L 83.797253 209.381642 
L 86.620913 227.714302 
L 89.360271 216.998755 
L 92.020216 209.666234 
L 94.605224 217.223811 
L 97.1194 240.759264 
L 99.566523 270.093101 
L 101.950078 216.087599 
L 104.273282 248.368187 
L 106.539118 217.208688 
L 108.75035 229.853979 
L 110.909548 202.784224 
L 113.019105 197.994946 
L 115.081253 186.63755 
L 117.098074 149.054172 
L 119.07152 185.194417 
L 121.003416 184.298321 
L 122.895477 178.542497 
L 124.749311 207.605279 
L 126.566434 133.339473 
L 128.34827 156.120393 
L 130.096165 150.081727 
L 131.811386 160.441767 
L 133.495134 136.812545 
L 135.148543 156.917858 
L 136.772686 155.713454 
L 138.368582 169.017251 
L 139.937196 176.293044 
L 141.479445 193.104752 
L 142.996202 165.543592 
L 144.488295 162.810487 
L 145.956513 194.404461 
L 147.401609 191.185217 
L 148.824299 209.379013 
L 150.225268 203.082768 
L 152.964626 179.270099 
L 154.304237 212.159978 
L 155.624572 228.057462 
L 156.926178 210.70482 
L 158.209579 203.210157 
L 159.475278 221.905149 
L 160.723755 202.593485 
L 161.955474 213.171058 
L 163.170878 213.482804 
L 164.370395 204.434504 
L 165.554433 193.759072 
L 166.723387 198.210913 
L 167.877638 193.069215 
L 169.017549 217.227679 
L 170.143474 178.976212 
L 171.25575 196.709009 
L 172.354706 187.801618 
L 173.440655 199.718216 
L 174.513904 188.54012 
L 175.574744 179.882708 
L 177.660327 244.519023 
L 178.685608 176.739809 
L 179.69956 170.923098 
L 180.70243 152.446684 
L 181.694457 182.995799 
L 182.675875 162.772997 
L 183.646907 162.80158 
L 184.607772 149.775756 
L 185.558678 146.483373 
L 186.499832 136.403969 
L 187.431431 149.949033 
L 188.353667 143.429532 
L 189.266726 152.528042 
L 190.170789 116.47229 
L 191.066032 133.555403 
L 191.952626 135.008673 
L 192.830735 128.107569 
L 193.70052 123.777635 
L 194.562138 137.722187 
L 195.415742 108.09727 
L 196.261478 116.207558 
L 197.09949 117.665811 
L 197.929918 130.23546 
L 198.752898 105.71438 
L 199.568563 134.358741 
L 200.377041 152.683012 
L 201.178458 104.543002 
L 201.972937 146.123588 
L 202.760596 108.039568 
L 203.541551 143.436915 
L 204.315916 137.960824 
L 205.083801 108.09884 
L 205.845313 128.868857 
L 206.600557 141.012935 
L 207.349636 146.918513 
L 208.09265 141.34718 
L 208.829696 131.827206 
L 209.560868 156.350228 
L 210.286261 165.699836 
L 211.005964 153.165307 
L 211.720066 194.005905 
L 212.428654 148.342715 
L 213.131813 167.731494 
L 213.829623 145.753805 
L 214.522168 137.988386 
L 215.209525 145.15667 
L 215.891771 168.172145 
L 216.568982 157.803636 
L 217.241232 154.26995 
L 217.908592 173.983207 
L 218.571134 175.930533 
L 219.228927 176.854864 
L 219.882038 169.995281 
L 220.530533 164.52506 
L 221.174477 185.812794 
L 221.813934 158.316335 
L 222.448966 201.580482 
L 223.079633 193.929591 
L 223.705995 192.027614 
L 224.32811 183.537627 
L 224.946037 197.866188 
L 225.559829 185.293092 
L 226.169544 196.114566 
L 226.775234 168.402366 
L 227.376952 183.411703 
L 227.97475 250.596053 
L 228.568679 164.405099 
L 229.158788 183.451398 
L 229.745127 197.733105 
L 230.327743 187.731655 
L 230.906683 182.846941 
L 231.481993 190.072517 
L 232.053719 193.85629 
L 232.621904 188.721024 
L 233.186594 178.287721 
L 233.747829 195.837483 
L 234.305652 192.917211 
L 234.860105 208.652231 
L 235.411228 202.352956 
L 235.959061 171.8605 
L 236.503642 205.522882 
L 237.045011 168.591106 
L 237.583204 190.352129 
L 238.118259 217.449513 
L 238.650212 175.834664 
L 239.1791 181.977962 
L 239.704956 182.181312 
L 240.227816 204.937005 
L 240.747714 195.000094 
L 241.264682 178.26227 
L 241.778755 194.623148 
L 242.289963 170.854229 
L 242.79834 189.083948 
L 243.303915 172.955659 
L 243.80672 188.730003 
L 244.306785 183.828574 
L 244.804139 202.952072 
L 245.298813 183.782809 
L 245.790834 176.821558 
L 246.280231 162.900126 
L 246.767031 172.534922 
L 247.251263 191.496798 
L 248.212127 136.479048 
L 248.688812 168.602839 
L 249.163034 154.388153 
L 249.634817 147.374445 
L 250.104188 181.501066 
L 250.571169 160.395096 
L 251.035786 164.891845 
L 251.498063 150.628613 
L 251.958022 162.939592 
L 252.415687 136.416589 
L 252.871081 154.196297 
L 253.324226 165.273339 
L 253.775145 143.338985 
L 254.223858 157.074136 
L 254.670388 151.621753 
L 255.114755 152.920458 
L 255.556981 154.646297 
L 255.997086 181.599676 
L 256.43509 150.076571 
L 256.871013 195.876893 
L 257.304875 157.799598 
L 257.736696 159.617537 
L 258.166494 157.965854 
L 258.594288 176.041155 
L 259.020097 153.821373 
L 259.443939 166.448603 
L 259.865833 204.774405 
L 260.285796 174.479677 
L 260.703845 188.464046 
L 261.119999 162.91023 
L 261.534273 186.943285 
L 261.946686 157.779896 
L 262.357253 146.306648 
L 262.765992 192.445449 
L 263.172918 160.08143 
L 263.578048 197.688383 
L 263.981397 173.229934 
L 264.38298 157.713424 
L 264.782814 173.570894 
L 265.180913 151.691404 
L 265.577292 158.47222 
L 265.971967 155.007767 
L 266.364951 189.08577 
L 266.756259 166.915585 
L 267.145906 172.322001 
L 267.533906 160.497324 
L 267.920271 163.043192 
L 268.305017 171.818782 
L 268.688156 165.558974 
L 269.069702 166.846784 
L 269.449668 161.954898 
L 269.828067 199.773761 
L 270.204912 169.045171 
L 270.580216 173.169819 
L 270.953992 152.362846 
L 271.326251 206.182022 
L 271.697005 165.689808 
L 272.066268 191.046667 
L 272.434051 167.353902 
L 272.800366 174.858515 
L 273.165224 192.125305 
L 273.528637 175.530821 
L 273.890616 174.289567 
L 274.251173 183.165986 
L 274.610319 165.033292 
L 274.968065 165.673815 
L 275.324422 174.908339 
L 275.6794 179.056826 
L 276.03301 149.288961 
L 276.385262 165.68317 
L 276.736168 172.732466 
L 277.085737 160.606641 
L 277.433979 193.539965 
L 277.780904 192.682191 
L 278.126523 199.15129 
L 278.470845 169.251513 
L 278.81388 218.695706 
L 279.155637 178.46473 
L 279.496126 202.048758 
L 279.835356 194.526894 
L 280.173337 178.933014 
L 280.510078 170.555088 
L 280.845587 171.498955 
L 281.179874 182.204849 
L 281.512948 173.95591 
L 281.844817 191.829425 
L 282.17549 173.678257 
L 282.504976 169.35835 
L 283.160419 154.553924 
L 283.486393 174.136173 
L 283.811214 183.518609 
L 284.134888 169.579999 
L 284.457426 184.560297 
L 284.778833 172.903039 
L 285.099118 192.683821 
L 286.053321 158.922752 
L 286.369196 158.831232 
L 286.683988 195.844449 
L 286.997704 172.99414 
L 287.31035 175.919923 
L 287.621935 164.43696 
L 287.932466 183.072736 
L 288.241949 160.797963 
L 288.550392 162.516172 
L 288.857802 183.705272 
L 289.164185 159.968554 
L 289.469548 154.423649 
L 289.773899 167.112655 
L 290.077244 172.765861 
L 290.379589 168.628077 
L 290.680941 194.789757 
L 290.981307 163.088891 
L 291.280693 211.266395 
L 291.579105 146.6381 
L 291.87655 173.090472 
L 292.173034 167.645298 
L 292.468563 164.332711 
L 292.763144 148.588301 
L 293.056781 147.893181 
L 293.641253 165.2 
L 293.932098 170.975942 
L 294.222025 154.767643 
L 294.511038 161.462473 
L 295.086348 131.971386 
L 295.372657 154.444748 
L 295.658074 145.823459 
L 295.942607 142.607984 
L 296.22626 141.737224 
L 296.509039 176.245225 
L 296.790949 158.813643 
L 297.071996 156.941342 
L 297.352184 123.758926 
L 297.910008 137.326172 
L 298.187653 129.269602 
L 298.464461 128.457197 
L 298.740436 129.794912 
L 299.289909 154.425662 
L 299.563416 150.702083 
L 299.836111 150.368202 
L 300.107998 146.924495 
L 300.379081 133.497719 
L 300.649366 128.714816 
L 300.918857 134.153915 
L 301.187559 194.884815 
L 301.455477 145.06782 
L 301.722614 134.354851 
L 301.988977 140.553695 
L 302.254568 142.795383 
L 302.519392 146.773564 
L 302.783455 173.930746 
L 303.309311 152.716546 
L 303.571114 166.250915 
L 303.832171 149.737103 
L 304.092488 217.296409 
L 304.352069 143.596323 
L 304.610917 160.79276 
L 304.869038 195.039885 
L 305.126434 153.619241 
L 305.38311 163.085263 
L 305.63907 154.268876 
L 305.894319 168.216783 
L 306.148859 167.480143 
L 306.402695 149.918982 
L 306.655831 171.358745 
L 306.90827 160.856891 
L 307.160017 189.154866 
L 307.411075 171.240853 
L 307.661448 168.750335 
L 307.91114 162.294931 
L 308.160154 187.03879 
L 308.408495 163.062403 
L 308.656165 181.315641 
L 308.903168 180.46927 
L 309.149508 200.185493 
L 309.640214 168.934738 
L 309.884586 178.153523 
L 310.128309 171.929129 
L 310.371386 185.769007 
L 310.613822 154.422507 
L 311.096779 167.309577 
L 311.337308 167.979041 
L 311.577208 165.749995 
L 311.816482 152.49259 
L 312.055134 190.623469 
L 312.293167 163.474719 
L 312.767389 181.379399 
L 313.003584 164.915845 
L 313.239173 161.928069 
L 313.474158 167.335599 
L 313.708543 185.911698 
L 313.942331 154.873328 
L 314.175524 177.494749 
L 314.408127 181.727407 
L 314.640142 205.334275 
L 314.871571 160.259525 
L 315.102418 177.005665 
L 315.332686 229.873302 
L 315.562377 152.230282 
L 315.791495 197.035137 
L 316.020043 183.147864 
L 316.475437 144.103784 
L 316.702289 147.915151 
L 316.928582 161.674623 
L 317.154318 164.406717 
L 317.3795 178.095444 
L 317.604131 202.598988 
L 318.05175 155.167218 
L 318.274743 163.85042 
L 318.497196 187.717979 
L 318.71911 131.743606 
L 318.94049 148.90882 
L 319.161336 151.713531 
L 319.381652 237.758267 
L 319.601441 173.521369 
L 319.820704 149.187083 
L 320.039445 166.746313 
L 320.257666 159.600597 
L 320.475369 183.170179 
L 320.692556 179.961286 
L 320.909231 171.056588 
L 321.125395 172.730409 
L 321.341051 139.174167 
L 321.556202 143.250739 
L 321.770849 141.858278 
L 321.984996 183.83592 
L 322.198643 168.849749 
L 322.411795 168.005262 
L 322.624452 170.68401 
L 322.836618 164.541773 
L 323.048295 190.649889 
L 323.259484 181.62743 
L 323.68041 135.816316 
L 323.890151 176.544623 
L 324.099414 155.605483 
L 324.3082 188.945115 
L 324.516513 162.21773 
L 324.724354 160.615257 
L 324.931725 161.92433 
L 325.138629 173.87387 
L 325.345067 164.399775 
L 325.551041 196.046023 
L 325.756555 157.831936 
L 325.961609 182.341608 
L 326.166206 171.669914 
L 326.370348 169.583239 
L 326.574036 166.18636 
L 326.777274 151.626024 
L 326.980062 182.095556 
L 327.182403 183.050824 
L 327.384299 182.145223 
L 327.585752 193.648002 
L 327.786763 171.985722 
L 327.987335 172.64945 
L 328.18747 206.08812 
L 328.387169 189.082894 
L 328.586435 217.378915 
L 328.785268 184.401882 
L 328.983672 179.626588 
L 329.181648 182.511568 
L 329.379197 163.892305 
L 329.576322 189.270166 
L 329.773025 182.581453 
L 329.969306 165.129324 
L 330.165169 160.410188 
L 330.360615 177.11655 
L 330.555645 216.498039 
L 330.750262 211.980814 
L 331.138261 155.180031 
L 331.524626 211.81259 
L 331.717201 180.781092 
L 331.909372 176.132171 
L 332.101142 205.855841 
L 332.292511 209.210432 
L 332.483482 227.446965 
L 332.674057 193.921308 
L 332.864237 203.445184 
L 333.243418 177.426119 
L 333.432423 204.620301 
L 333.621039 178.038396 
L 333.809268 180.364654 
L 333.997112 194.536871 
L 334.184572 227.1808 
L 334.37165 219.466163 
L 334.558347 178.973915 
L 334.744665 180.634719 
L 334.930606 233.269416 
L 335.116171 180.500969 
L 335.301361 173.700401 
L 335.670623 196.824952 
L 335.854699 180.756521 
L 336.038406 220.377181 
L 336.221746 195.807054 
L 336.404721 188.738484 
L 336.587331 212.160726 
L 336.769579 201.592214 
L 336.951465 221.792583 
L 337.132992 183.732848 
L 337.31416 229.716089 
L 337.494972 195.30593 
L 337.675427 191.769481 
L 337.855529 195.449379 
L 338.035278 194.652062 
L 338.214675 214.54458 
L 338.393722 183.566141 
L 338.572421 233.675544 
L 338.750772 190.971634 
L 339.283755 184.118696 
L 339.46073 190.435799 
L 339.637365 180.861302 
L 339.81366 190.161866 
L 339.989618 211.411333 
L 340.340523 188.687498 
L 340.690092 205.565297 
L 341.038334 178.043285 
L 341.211961 247.110009 
L 341.558232 189.096353 
L 341.730878 208.27045 
L 341.903201 261.509113 
L 342.0752 193.794081 
L 342.418235 193.121692 
L 342.589273 182.691031 
L 342.759992 194.539896 
L 342.930395 192.457301 
L 343.100481 238.920593 
L 343.270253 197.242729 
L 343.439712 188.157831 
L 343.608858 227.592289 
L 343.777692 192.536572 
L 343.946217 198.741365 
L 344.114433 228.080281 
L 344.282341 195.342222 
L 344.449942 188.793063 
L 344.617238 217.563775 
L 344.784229 216.256313 
L 344.950917 208.849164 
L 345.117303 192.580226 
L 345.283387 203.684233 
L 345.449172 202.359478 
L 345.614657 198.212838 
L 345.779845 205.106745 
L 345.944736 217.418632 
L 346.109331 201.00884 
L 346.437638 228.551633 
L 346.764774 191.042907 
L 347.090749 199.050017 
L 347.253303 205.575995 
L 347.415569 199.627595 
L 347.577549 188.756152 
L 347.900654 221.883078 
L 348.061781 179.934145 
L 348.383188 201.855987 
L 348.543471 222.373467 
L 348.703474 184.081539 
L 349.022645 241.972679 
L 349.181815 189.75108 
L 349.34071 192.630074 
L 349.49933 226.628074 
L 349.657677 207.808659 
L 349.81575 203.790851 
L 349.973552 209.64438 
L 350.131083 193.826157 
L 350.445335 213.278811 
L 350.602059 210.580057 
L 350.758515 216.886054 
L 350.914706 190.829899 
L 351.07063 214.861746 
L 351.226291 210.174248 
L 351.381687 173.939489 
L 351.536821 228.057636 
L 351.846304 189.406745 
L 352.154747 221.35259 
L 352.308581 188.283839 
L 352.462157 207.869823 
L 352.615476 210.770713 
L 352.76854 200.835376 
L 353.073904 209.317616 
L 353.226205 233.166411 
L 353.530052 190.926755 
L 353.832896 227.3688 
L 353.983944 173.907033 
L 354.134744 206.990265 
L 354.285297 195.544929 
L 354.435603 195.207351 
L 354.585663 201.112322 
L 354.735478 184.522583 
L 354.885048 217.10867 
L 355.034376 207.73976 
L 355.183461 208.111296 
L 355.480906 195.455553 
L 355.77739 225.739799 
L 355.925273 189.736033 
L 356.072919 198.086979 
L 356.367499 181.72615 
L 356.514435 193.618358 
L 356.661137 217.947973 
L 356.953838 190.733487 
L 357.245608 170.159045 
L 357.536453 209.785513 
L 357.82638 177.864996 
L 357.971001 167.975408 
L 358.115393 184.686815 
L 358.25956 216.294819 
L 358.403499 186.674092 
L 358.547214 200.969895 
L 358.690704 179.009213 
L 358.833969 234.338723 
L 359.119832 177.342809 
L 359.26243 198.611069 
L 359.404806 162.397398 
L 359.546962 168.050001 
L 359.688898 239.672816 
L 359.830615 230.753447 
L 360.113394 174.802745 
L 360.254457 194.196787 
L 360.395304 181.167752 
L 360.535935 184.812237 
L 360.676351 169.33789 
L 360.816552 193.810996 
L 360.95654 192.651014 
L 361.096314 214.603308 
L 361.235875 176.229272 
L 361.514363 185.873835 
L 361.653291 180.347709 
L 361.930517 230.28052 
L 362.068816 192.040135 
L 362.206907 191.578804 
L 362.344791 191.681742 
L 362.482468 194.340912 
L 362.619939 176.028886 
L 362.757204 231.940038 
L 363.03112 185.234105 
L 363.30422 219.274763 
L 363.440466 182.792162 
L 363.712353 194.978765 
L 363.847995 196.923125 
L 363.983436 211.279176 
L 364.118678 202.429983 
L 364.253721 204.301212 
L 364.388566 201.103695 
L 364.523213 194.776315 
L 364.657662 211.048247 
L 364.791915 181.38817 
L 364.925971 184.078785 
L 365.059832 182.053832 
L 365.193498 217.832594 
L 365.460247 203.037164 
L 365.593332 185.771934 
L 365.726224 189.1256 
L 365.858923 200.103209 
L 365.991431 225.854301 
L 366.255874 163.695309 
L 366.38781 202.016075 
L 366.519557 180.715561 
L 366.651115 198.32435 
L 366.782485 186.746101 
L 366.913667 191.605332 
L 367.044661 189.191456 
L 367.175469 199.003656 
L 367.306091 198.072129 
L 367.436527 189.060953 
L 367.566778 215.001512 
L 367.696844 198.388409 
L 367.826726 211.915702 
L 367.956424 204.342273 
L 368.08594 211.545989 
L 368.215273 204.591146 
L 368.344424 189.173384 
L 368.473393 235.091269 
L 368.602181 182.487282 
L 368.730789 185.850938 
L 368.859217 194.355891 
L 368.987465 230.501231 
L 369.115535 187.280525 
L 369.371139 210.812196 
L 369.498674 179.46841 
L 369.626032 181.174965 
L 369.753214 173.819849 
L 370.133705 283.352321 
L 370.260186 191.20031 
L 370.386493 215.776728 
L 370.512626 182.714051 
L 370.764372 225.369282 
L 371.015431 192.008994 
L 371.140703 200.282809 
L 371.265804 185.24036 
L 371.390735 201.364026 
L 371.515496 189.940129 
L 371.640087 206.506302 
L 371.888764 194.146699 
L 372.01285 246.804644 
L 372.136769 211.460681 
L 372.26052 218.601666 
L 372.384105 236.828309 
L 372.507523 233.28467 
L 372.753864 192.656541 
L 372.999544 210.246608 
L 373.122138 197.325786 
L 373.366836 249.763676 
L 373.610884 176.041602 
L 373.854284 216.650072 
L 373.975742 229.071894 
L 374.097039 225.394 
L 374.218177 236.126481 
L 374.339155 213.573611 
L 374.459973 214.777828 
L 374.580633 231.114438 
L 374.701134 232.329142 
L 374.941663 208.838293 
L 375.061692 207.912333 
L 375.181563 214.615078 
L 375.301278 238.008695 
L 375.540241 198.169325 
L 375.65949 224.859896 
L 375.897523 194.230789 
L 376.016308 202.279399 
L 376.253419 194.371374 
L 376.371744 200.192823 
L 376.489918 196.641193 
L 376.607939 225.730346 
L 376.725809 219.464192 
L 376.961096 194.47264 
L 377.078513 219.130766 
L 377.19578 204.272239 
L 377.312898 211.230017 
L 377.546686 243.924079 
L 377.663357 192.59446 
L 378.012482 207.336016 
L 378.244497 190.183685 
L 378.475926 220.267802 
L 378.591422 199.788585 
L 378.706773 204.398638 
L 378.82198 216.737335 
L 379.051959 198.049624 
L 379.166733 197.057249 
L 379.281363 260.21552 
L 379.510195 198.611773 
L 379.624398 196.28678 
L 379.852377 212.222616 
L 380.079792 198.216991 
L 380.193288 219.389798 
L 380.41986 193.303514 
L 380.532937 216.503134 
L 380.645874 206.307421 
L 380.871333 225.048951 
L 380.983855 192.555157 
L 381.096239 238.318522 
L 381.320596 187.845942 
L 381.656105 212.993829 
L 381.767669 192.92521 
L 381.990392 217.816997 
L 382.101551 202.618204 
L 382.212575 221.95105 
L 382.434222 204.146339 
L 382.544845 205.586918 
L 382.655335 211.960856 
L 382.875916 194.383403 
L 382.986008 237.710508 
L 383.095968 181.144554 
L 383.205796 211.114042 
L 383.315494 207.742171 
L 383.42506 200.503181 
L 383.534495 217.655343 
L 383.643801 201.360918 
L 383.862021 229.50683 
L 383.970937 202.486146 
L 384.079724 265.094755 
L 384.188382 220.051229 
L 384.296911 225.824591 
L 384.405313 188.639068 
L 384.513586 198.230037 
L 384.621732 295.488 
L 384.837642 191.763125 
L 384.945407 213.356113 
L 385.053045 191.158202 
L 385.160557 216.225595 
L 385.267944 214.550422 
L 385.375204 203.126055 
L 385.48234 230.252982 
L 385.589351 196.821552 
L 385.696237 205.932263 
L 385.802999 200.814834 
L 385.909636 204.960451 
L 386.01615 201.999872 
L 386.122541 222.852514 
L 386.228808 191.437183 
L 386.334952 191.679098 
L 386.440974 222.982096 
L 386.65265 191.171504 
L 386.969252 237.177202 
L 387.074544 201.935966 
L 387.179715 203.817688 
L 387.284765 192.341333 
L 387.494506 195.738972 
L 387.808222 238.571284 
L 388.016771 197.081652 
L 388.120868 217.00128 
L 388.328709 195.756824 
L 388.432453 204.902584 
L 388.53608 179.011704 
L 388.63959 221.332069 
L 388.742984 215.391871 
L 388.949422 202.193167 
L 389.155397 210.456307 
L 389.258211 188.108592 
L 389.36091 220.558201 
L 389.463494 217.124484 
L 389.565964 239.732901 
L 389.66832 214.385761 
L 389.770561 230.729073 
L 389.974703 202.86056 
L 390.076604 221.044149 
L 390.178391 206.41331 
L 390.483079 209.745764 
L 390.584417 207.634432 
L 390.685644 211.553807 
L 390.786758 235.521638 
L 390.887762 212.780255 
L 390.988654 219.073341 
L 391.089436 198.876872 
L 391.290668 243.676554 
L 391.49146 190.173318 
L 391.591691 269.176927 
L 391.691813 191.925582 
L 391.891729 212.535006 
L 391.991524 209.781741 
L 392.091211 213.832025 
L 392.19079 210.948007 
L 392.290261 185.290084 
L 392.389623 210.075569 
L 392.488879 209.361835 
L 392.687068 197.887152 
L 392.786003 211.795924 
L 392.884831 196.130309 
L 393.082168 211.672844 
L 393.180677 212.373783 
L 393.279081 231.660655 
L 393.37738 206.878959 
L 393.475573 219.036543 
L 393.573662 212.359309 
L 393.671645 218.271783 
L 393.769525 245.806664 
L 393.867299 215.31531 
L 393.96497 218.630877 
L 394.16 203.323726 
L 394.25736 211.667295 
L 394.354617 191.19084 
L 394.451771 193.643187 
L 394.64577 237.127043 
L 394.742616 200.963512 
L 394.83936 250.025791 
L 395.032543 213.10045 
L 395.22532 198.956501 
L 395.321556 220.61713 
L 395.417692 218.768213 
L 395.513727 196.946207 
L 395.609662 197.087824 
L 395.801232 211.556442 
L 395.896867 204.796791 
L 395.992402 188.333669 
L 396.278413 241.207214 
L 396.373552 206.882345 
L 396.468592 247.436555 
L 396.658379 218.037212 
L 396.847773 203.068414 
L 396.942324 233.571522 
L 397.036778 202.733317 
L 397.225394 217.385056 
L 397.319557 208.477286 
L 397.413623 222.45496 
L 397.507593 209.998768 
L 397.601467 215.976582 
L 397.695245 232.80661 
L 397.788927 211.698843 
L 397.976005 241.346034 
L 398.162702 215.524582 
L 398.255909 209.60643 
L 398.349021 229.975761 
L 398.442038 200.903412 
L 398.534961 225.263123 
L 398.62779 221.333752 
L 398.813168 202.551414 
L 398.905716 219.748978 
L 398.998171 209.419381 
L 399.090533 250.241872 
L 399.182802 243.121649 
L 399.274979 215.759917 
L 399.367063 268.20302 
L 399.550954 217.530229 
L 399.642762 205.654805 
L 399.734477 216.878651 
L 399.826102 208.099257 
L 399.917635 211.581427 
L 400.009076 229.156063 
L 400.191687 209.759773 
L 400.282856 238.119564 
L 400.373934 216.261202 
L 400.464923 221.442193 
L 400.555821 195.361441 
L 400.646629 239.034441 
L 400.827976 201.662323 
L 400.918516 201.595691 
L 401.008966 200.834648 
L 401.099327 211.606896 
L 401.189599 201.204594 
L 401.279783 233.96441 
L 401.459884 202.335211 
L 401.639633 228.583015 
L 401.81903 235.248779 
L 401.998077 275.133829 
L 402.265995 204.095212 
L 402.355127 227.904942 
L 402.444173 203.453227 
L 402.533132 204.647083 
L 402.622006 241.912097 
L 402.88811 215.398516 
L 402.976641 235.333082 
L 403.065086 222.787121 
L 403.153446 233.232222 
L 403.24172 199.252742 
L 403.32991 233.98582 
L 403.418016 213.596903 
L 403.593973 229.531976 
L 403.769594 198.374966 
L 404.032396 236.384069 
L 404.119829 208.254605 
L 404.20718 250.791394 
L 404.294447 204.780591 
L 404.381632 238.257218 
L 404.468734 214.513197 
L 404.555753 238.727148 
L 404.642689 202.123234 
L 404.816316 229.717127 
L 404.903007 263.912956 
L 404.989615 216.127861 
L 405.076142 244.846262 
L 405.162587 198.471004 
L 405.248951 224.905765 
L 405.335234 209.329996 
L 405.421435 224.911134 
L 405.507556 204.835369 
L 405.593596 242.971538 
L 405.679556 214.64103 
L 405.765435 230.08358 
L 405.851233 211.668638 
L 405.936952 223.84535 
L 406.02259 263.426626 
L 406.108149 207.407337 
L 406.193628 213.676959 
L 406.279028 226.378359 
L 406.364348 201.932445 
L 406.53475 224.729086 
L 406.704837 202.016823 
L 406.789762 208.9074 
L 406.874609 208.699018 
L 406.959377 206.313329 
L 407.044067 195.305015 
L 407.128679 217.792155 
L 407.213213 208.282957 
L 407.297669 250.570177 
L 407.466349 198.481213 
L 407.550573 226.530317 
L 407.718788 181.973191 
L 407.802781 198.829863 
L 407.886696 196.84896 
L 407.970535 195.491018 
L 408.054298 179.998488 
L 408.221593 208.879293 
L 408.388585 202.515489 
L 408.471966 210.965301 
L 408.555273 250.179965 
L 408.638503 214.201642 
L 408.721658 217.09199 
L 408.970672 194.551093 
L 409.053527 221.106325 
L 409.136307 216.753585 
L 409.219013 200.507599 
L 409.301644 217.892811 
L 409.466683 193.868401 
L 409.549091 209.567814 
L 409.631426 194.742992 
L 409.877986 227.921421 
L 409.960026 193.827499 
L 410.041993 222.886247 
L 410.123887 206.129818 
L 410.205707 235.91724 
L 410.287455 223.689993 
L 410.36913 223.81442 
L 410.613719 236.840236 
L 410.695104 211.657239 
L 410.776417 216.141089 
L 410.938827 206.186882 
L 411.019924 213.197378 
L 411.10095 203.671898 
L 411.181904 227.096256 
L 411.42434 201.819608 
L 411.505009 224.563848 
L 411.585608 210.778953 
L 411.666136 219.100273 
L 411.746594 267.062946 
L 411.907297 217.493468 
L 411.987543 215.507523 
L 412.06772 225.646089 
L 412.147826 217.783046 
L 412.227862 229.874537 
L 412.307829 229.421823 
L 412.387726 204.844006 
L 412.467553 223.071953 
L 412.547311 220.971779 
L 412.627 215.37483 
L 412.70662 226.562 
L 412.786171 201.226364 
L 412.865652 209.545707 
L 413.02441 223.028091 
L 413.103685 192.822473 
L 413.182893 238.489886 
L 413.262032 233.868875 
L 413.341103 242.651603 
L 413.420105 205.924156 
L 413.49904 227.956774 
L 413.577907 212.630889 
L 413.656706 220.844984 
L 413.735438 202.606195 
L 413.814102 222.900194 
L 413.971228 198.575134 
L 414.128086 241.199351 
L 414.284676 210.524799 
L 414.362871 226.917793 
L 414.519061 207.582407 
L 414.597056 234.256614 
L 414.674986 216.918474 
L 414.752849 228.264897 
L 414.830646 194.958017 
L 415.063642 267.587591 
L 415.218645 196.504323 
L 415.296049 245.870415 
L 415.373387 212.419201 
L 415.45066 220.217011 
L 415.605011 205.932663 
L 415.682089 229.913228 
L 415.759103 216.554694 
L 415.836052 218.68361 
L 415.912936 216.463165 
L 416.143204 244.26094 
L 416.296395 224.71858 
L 416.296395 224.71858 
" clip-path="url(#pcc13fafe53)" style="fill: none; stroke: #008000; stroke-width: 1.5; stroke-linecap: square"/>
   </g>
   <g id="patch_3">
    <path d="M 57.6 307.584 
L 57.6 41.472 
" style="fill: none; stroke: #000000; stroke-width: 0.8; stroke-linejoin: miter; stroke-linecap: square"/>
   </g>
   <g id="patch_4">
    <path d="M 414.72 307.584 
L 414.72 41.472 
" style="fill: none; stroke: #000000; stroke-width: 0.8; stroke-linejoin: miter; stroke-linecap: square"/>
   </g>
   <g id="patch_5">
    <path d="M 57.6 307.584 
L 414.72 307.584 
" style="fill: none; stroke: #000000; stroke-width: 0.8; stroke-linejoin: miter; stroke-linecap: square"/>
   </g>
   <g id="patch_6">
    <path d="M 57.6 41.472 
L 414.72 41.472 
" style="fill: none; stroke: #000000; stroke-width: 0.8; stroke-linejoin: miter; stroke-linecap: square"/>
   </g>
   <g id="patch_7">
    <path d="M 232.703636 96.751382 
Q 219.367393 100.047507 207.116525 103.075376 
" style="fill: none; stroke: #000000; stroke-linecap: round"/>
    <path d="M 211.479551 104.057211 
L 207.116525 103.075376 
L 210.519808 100.174056 
" style="fill: none; stroke: #000000; stroke-linecap: round"/>
   </g>
   <g id="text_10">
    <!-- (4.78 Hz, 0.18 m/s²) -->
    <g transform="translate(210.305266 92.671098) scale(0.1 -0.1)">
     <defs>
      <path id="DejaVuSans-2e" d="M 684 794 
L 1344 794 
L 1344 0 
L 684 0 
L 684 794 
z
" transform="scale(0.015625)"/>
      <path id="DejaVuSans-37" d="M 525 4666 
L 3525 4666 
L 3525 4397 
L 1831 0 
L 1172 0 
L 2766 4134 
L 525 4134 
L 525 4666 
z
" transform="scale(0.015625)"/>
      <path id="DejaVuSans-38" d="M 2034 2216 
Q 1584 2216 1326 1975 
Q 1069 1734 1069 1313 
Q 1069 891 1326 650 
Q 1584 409 2034 409 
Q 2484 409 2743 651 
Q 3003 894 3003 1313 
Q 3003 1734 2745 1975 
Q 2488 2216 2034 2216 
z
M 1403 2484 
Q 997 2584 770 2862 
Q 544 3141 544 3541 
Q 544 4100 942 4425 
Q 1341 4750 2034 4750 
Q 2731 4750 3128 4425 
Q 3525 4100 3525 3541 
Q 3525 3141 3298 2862 
Q 3072 2584 2669 2484 
Q 3125 2378 3379 2068 
Q 3634 1759 3634 1313 
Q 3634 634 3220 271 
Q 2806 -91 2034 -91 
Q 1263 -91 848 271 
Q 434 634 434 1313 
Q 434 1759 690 2068 
Q 947 2378 1403 2484 
z
M 1172 3481 
Q 1172 3119 1398 2916 
Q 1625 2713 2034 2713 
Q 2441 2713 2670 2916 
Q 2900 3119 2900 3481 
Q 2900 3844 2670 4047 
Q 2441 4250 2034 4250 
Q 1625 4250 1398 4047 
Q 1172 3844 1172 3481 
z
" transform="scale(0.015625)"/>
      <path id="DejaVuSans-2c" d="M 750 794 
L 1409 794 
L 1409 256 
L 897 -744 
L 494 -744 
L 750 256 
L 750 794 
z
" transform="scale(0.015625)"/>
     </defs>
     <use xlink:href="#DejaVuSans-28"/>
     <use xlink:href="#DejaVuSans-34" x="39.013672"/>
     <use xlink:href="#DejaVuSans-2e" x="102.636719"/>
     <use xlink:href="#DejaVuSans-37" x="134.423828"/>
     <use xlink:href="#DejaVuSans-38" x="198.046875"/>
     <use xlink:href="#DejaVuSans-20" x="261.669922"/>
     <use xlink:href="#DejaVuSans-48" x="293.457031"/>
     <use xlink:href="#DejaVuSans-7a" x="368.652344"/>
     <use xlink:href="#DejaVuSans-2c" x="421.142578"/>
     <use xlink:href="#DejaVuSans-20" x="452.929688"/>
     <use xlink:href="#DejaVuSans-30" x="484.716797"/>
     <use xlink:href="#DejaVuSans-2e" x="548.339844"/>
     <use xlink:href="#DejaVuSans-31" x="580.126953"/>
     <use xlink:href="#DejaVuSans-38" x="643.75"/>
     <use xlink:href="#DejaVuSans-20" x="707.373047"/>
     <use xlink:href="#DejaVuSans-6d" x="739.160156"/>
     <use xlink:href="#DejaVuSans-2f" x="836.572266"/>
     <use xlink:href="#DejaVuSans-73" x="870.263672"/>
     <use xlink:href="#DejaVuSans-b2" x="922.363281"/>
     <use xlink:href="#DejaVuSans-29" x="962.451172"/>
    </g>
   </g>
   <g id="text_11">
    <!-- Acceleration (rms) values for the base curve (Z axis) -->
    <g transform="translate(78.068438 22.034625) scale(0.12 -0.12)">
     <defs>
      <path id="DejaVuSans-76" d="M 191 3500 
L 800 3500 
L 1894 563 
L 2988 3500 
L 3597 3500 
L 2284 0 
L 1503 0 
L 191 3500 
z
" transform="scale(0.015625)"/>
      <path id="DejaVuSans-66" d="M 2375 4863 
L 2375 4384 
L 1825 4384 
Q 1516 4384 1395 4259 
Q 1275 4134 1275 3809 
L 1275 3500 
L 2222 3500 
L 2222 3053 
L 1275 3053 
L 1275 0 
L 697 0 
L 697 3053 
L 147 3053 
L 147 3500 
L 697 3500 
L 697 3744 
Q 697 4328 969 4595 
Q 1241 4863 1831 4863 
L 2375 4863 
z
" transform="scale(0.015625)"/>
      <path id="DejaVuSans-68" d="M 3513 2113 
L 3513 0 
L 2938 0 
L 2938 2094 
Q 2938 2591 2744 2837 
Q 2550 3084 2163 3084 
Q 1697 3084 1428 2787 
Q 1159 2491 1159 1978 
L 1159 0 
L 581 0 
L 581 4863 
L 1159 4863 
L 1159 2956 
Q 1366 3272 1645 3428 
Q 1925 3584 2291 3584 
Q 2894 3584 3203 3211 
Q 3513 2838 3513 2113 
z
" transform="scale(0.015625)"/>
      <path id="DejaVuSans-62" d="M 3116 1747 
Q 3116 2381 2855 2742 
Q 2594 3103 2138 3103 
Q 1681 3103 1420 2742 
Q 1159 2381 1159 1747 
Q 1159 1113 1420 752 
Q 1681 391 2138 391 
Q 2594 391 2855 752 
Q 3116 1113 3116 1747 
z
M 1159 2969 
Q 1341 3281 1617 3432 
Q 1894 3584 2278 3584 
Q 2916 3584 3314 3078 
Q 3713 2572 3713 1747 
Q 3713 922 3314 415 
Q 2916 -91 2278 -91 
Q 1894 -91 1617 61 
Q 1341 213 1159 525 
L 1159 0 
L 581 0 
L 581 4863 
L 1159 4863 
L 1159 2969 
z
" transform="scale(0.015625)"/>
      <path id="DejaVuSans-5a" d="M 359 4666 
L 4025 4666 
L 4025 4184 
L 1075 531 
L 4097 531 
L 4097 0 
L 288 0 
L 288 481 
L 3238 4134 
L 359 4134 
L 359 4666 
z
" transform="scale(0.015625)"/>
      <path id="DejaVuSans-78" d="M 3513 3500 
L 2247 1797 
L 3578 0 
L 2900 0 
L 1881 1375 
L 863 0 
L 184 0 
L 1544 1831 
L 300 3500 
L 978 3500 
L 1906 2253 
L 2834 3500 
L 3513 3500 
z
" transform="scale(0.015625)"/>
     </defs>
     <use xlink:href="#DejaVuSans-41"/>
     <use xlink:href="#DejaVuSans-63" x="66.658203"/>
     <use xlink:href="#DejaVuSans-63" x="121.638672"/>
     <use xlink:href="#DejaVuSans-65" x="176.619141"/>
     <use xlink:href="#DejaVuSans-6c" x="238.142578"/>
     <use xlink:href="#DejaVuSans-65" x="265.925781"/>
     <use xlink:href="#DejaVuSans-72" x="327.449219"/>
     <use xlink:href="#DejaVuSans-61" x="368.5625"/>
     <use xlink:href="#DejaVuSans-74" x="429.841797"/>
     <use xlink:href="#DejaVuSans-69" x="469.050781"/>
     <use xlink:href="#DejaVuSans-6f" x="496.833984"/>
     <use xlink:href="#DejaVuSans-6e" x="558.015625"/>
     <use xlink:href="#DejaVuSans-20" x="621.394531"/>
     <use xlink:href="#DejaVuSans-28" x="653.181641"/>
     <use xlink:href="#DejaVuSans-72" x="692.195312"/>
     <use xlink:href="#DejaVuSans-6d" x="731.558594"/>
     <use xlink:href="#DejaVuSans-73" x="828.970703"/>
     <use xlink:href="#DejaVuSans-29" x="881.070312"/>
     <use xlink:href="#DejaVuSans-20" x="920.083984"/>
     <use xlink:href="#DejaVuSans-76" x="951.871094"/>
     <use xlink:href="#DejaVuSans-61" x="1011.050781"/>
     <use xlink:href="#DejaVuSans-6c" x="1072.330078"/>
     <use xlink:href="#DejaVuSans-75" x="1100.113281"/>
     <use xlink:href="#DejaVuSans-65" x="1163.492188"/>
     <use xlink:href="#DejaVuSans-73" x="1225.015625"/>
     <use xlink:href="#DejaVuSans-20" x="1277.115234"/>
     <use xlink:href="#DejaVuSans-66" x="1308.902344"/>
     <use xlink:href="#DejaVuSans-6f" x="1344.107422"/>
     <use xlink:href="#DejaVuSans-72" x="1405.289062"/>
     <use xlink:href="#DejaVuSans-20" x="1446.402344"/>
     <use xlink:href="#DejaVuSans-74" x="1478.189453"/>
     <use xlink:href="#DejaVuSans-68" x="1517.398438"/>
     <use xlink:href="#DejaVuSans-65" x="1580.777344"/>
     <use xlink:href="#DejaVuSans-20" x="1642.300781"/>
     <use xlink:href="#DejaVuSans-62" x="1674.087891"/>
     <use xlink:href="#DejaVuSans-61" x="1737.564453"/>
     <use xlink:href="#DejaVuSans-73" x="1798.84375"/>
     <use xlink:href="#DejaVuSans-65" x="1850.943359"/>
     <use xlink:href="#DejaVuSans-20" x="1912.466797"/>
     <use xlink:href="#DejaVuSans-63" x="1944.253906"/>
     <use xlink:href="#DejaVuSans-75" x="1999.234375"/>
     <use xlink:href="#DejaVuSans-72" x="2062.613281"/>
     <use xlink:href="#DejaVuSans-76" x="2103.726562"/>
     <use xlink:href="#DejaVuSans-65" x="2162.90625"/>
     <use xlink:href="#DejaVuSans-20" x="2224.429688"/>
     <use xlink:href="#DejaVuSans-28" x="2256.216797"/>
     <use xlink:href="#DejaVuSans-5a" x="2295.230469"/>
     <use xlink:href="#DejaVuSans-20" x="2363.736328"/>
     <use xlink:href="#DejaVuSans-61" x="2395.523438"/>
     <use xlink:href="#DejaVuSans-78" x="2456.802734"/>
     <use xlink:href="#DejaVuSans-69" x="2515.982422"/>
     <use xlink:href="#DejaVuSans-73" x="2543.765625"/>
     <use xlink:href="#DejaVuSans-29" x="2595.865234"/>
    </g>
    <!-- based on BS 6472 -->
    <g transform="translate(181.7625 35.472) scale(0.12 -0.12)">
     <defs>
      <path id="DejaVuSans-64" d="M 2906 2969 
L 2906 4863 
L 3481 4863 
L 3481 0 
L 2906 0 
L 2906 525 
Q 2725 213 2448 61 
Q 2172 -91 1784 -91 
Q 1150 -91 751 415 
Q 353 922 353 1747 
Q 353 2572 751 3078 
Q 1150 3584 1784 3584 
Q 2172 3584 2448 3432 
Q 2725 3281 2906 2969 
z
M 947 1747 
Q 947 1113 1208 752 
Q 1469 391 1925 391 
Q 2381 391 2643 752 
Q 2906 1113 2906 1747 
Q 2906 2381 2643 2742 
Q 2381 3103 1925 3103 
Q 1469 3103 1208 2742 
Q 947 2381 947 1747 
z
" transform="scale(0.015625)"/>
      <path id="DejaVuSans-42" d="M 1259 2228 
L 1259 519 
L 2272 519 
Q 2781 519 3026 730 
Q 3272 941 3272 1375 
Q 3272 1813 3026 2020 
Q 2781 2228 2272 2228 
L 1259 2228 
z
M 1259 4147 
L 1259 2741 
L 2194 2741 
Q 2656 2741 2882 2914 
Q 3109 3088 3109 3444 
Q 3109 3797 2882 3972 
Q 2656 4147 2194 4147 
L 1259 4147 
z
M 628 4666 
L 2241 4666 
Q 2963 4666 3353 4366 
Q 3744 4066 3744 3513 
Q 3744 3084 3544 2831 
Q 3344 2578 2956 2516 
Q 3422 2416 3680 2098 
Q 3938 1781 3938 1306 
Q 3938 681 3513 340 
Q 3088 0 2303 0 
L 628 0 
L 628 4666 
z
" transform="scale(0.015625)"/>
      <path id="DejaVuSans-53" d="M 3425 4513 
L 3425 3897 
Q 3066 4069 2747 4153 
Q 2428 4238 2131 4238 
Q 1616 4238 1336 4038 
Q 1056 3838 1056 3469 
Q 1056 3159 1242 3001 
Q 1428 2844 1947 2747 
L 2328 2669 
Q 3034 2534 3370 2195 
Q 3706 1856 3706 1288 
Q 3706 609 3251 259 
Q 2797 -91 1919 -91 
Q 1588 -91 1214 -16 
Q 841 59 441 206 
L 441 856 
Q 825 641 1194 531 
Q 1563 422 1919 422 
Q 2459 422 2753 634 
Q 3047 847 3047 1241 
Q 3047 1584 2836 1778 
Q 2625 1972 2144 2069 
L 1759 2144 
Q 1053 2284 737 2584 
Q 422 2884 422 3419 
Q 422 4038 858 4394 
Q 1294 4750 2059 4750 
Q 2388 4750 2728 4690 
Q 3069 4631 3425 4513 
z
" transform="scale(0.015625)"/>
      <path id="DejaVuSans-36" d="M 2113 2584 
Q 1688 2584 1439 2293 
Q 1191 2003 1191 1497 
Q 1191 994 1439 701 
Q 1688 409 2113 409 
Q 2538 409 2786 701 
Q 3034 994 3034 1497 
Q 3034 2003 2786 2293 
Q 2538 2584 2113 2584 
z
M 3366 4563 
L 3366 3988 
Q 3128 4100 2886 4159 
Q 2644 4219 2406 4219 
Q 1781 4219 1451 3797 
Q 1122 3375 1075 2522 
Q 1259 2794 1537 2939 
Q 1816 3084 2150 3084 
Q 2853 3084 3261 2657 
Q 3669 2231 3669 1497 
Q 3669 778 3244 343 
Q 2819 -91 2113 -91 
Q 1303 -91 875 529 
Q 447 1150 447 2328 
Q 447 3434 972 4092 
Q 1497 4750 2381 4750 
Q 2619 4750 2861 4703 
Q 3103 4656 3366 4563 
z
" transform="scale(0.015625)"/>
     </defs>
     <use xlink:href="#DejaVuSans-62"/>
     <use xlink:href="#DejaVuSans-61" x="63.476562"/>
     <use xlink:href="#DejaVuSans-73" x="124.755859"/>
     <use xlink:href="#DejaVuSans-65" x="176.855469"/>
     <use xlink:href="#DejaVuSans-64" x="238.378906"/>
     <use xlink:href="#DejaVuSans-20" x="301.855469"/>
     <use xlink:href="#DejaVuSans-6f" x="333.642578"/>
     <use xlink:href="#DejaVuSans-6e" x="394.824219"/>
     <use xlink:href="#DejaVuSans-20" x="458.203125"/>
     <use xlink:href="#DejaVuSans-42" x="489.990234"/>
     <use xlink:href="#DejaVuSans-53" x="556.84375"/>
     <use xlink:href="#DejaVuSans-20" x="620.320312"/>
     <use xlink:href="#DejaVuSans-36" x="652.107422"/>
     <use xlink:href="#DejaVuSans-34" x="715.730469"/>
     <use xlink:href="#DejaVuSans-37" x="779.353516"/>
     <use xlink:href="#DejaVuSans-32" x="842.976562"/>
    </g>
   </g>
   <g id="legend_1">
    <g id="patch_8">
     <path d="M 64.6 302.584 
L 173.925 302.584 
Q 175.925 302.584 175.925 300.584 
L 175.925 213.51525 
Q 175.925 211.51525 173.925 211.51525 
L 64.6 211.51525 
Q 62.6 211.51525 62.6 213.51525 
L 62.6 300.584 
Q 62.6 302.584 64.6 302.584 
z
" style="fill: #ffffff; opacity: 0.8; stroke: #cccccc; stroke-linejoin: miter"/>
    </g>
    <g id="line2d_107">
     <path d="M 66.6 219.613687 
L 76.6 219.613687 
L 86.6 219.613687 
" style="fill: none; stroke-dasharray: 6,6; stroke-dashoffset: 0; stroke: #ff0000; stroke-width: 1.2"/>
    </g>
    <g id="text_12">
     <!-- Base curve -->
     <g transform="translate(94.6 223.113687) scale(0.1 -0.1)">
      <use xlink:href="#DejaVuSans-42"/>
      <use xlink:href="#DejaVuSans-61" x="68.603516"/>
      <use xlink:href="#DejaVuSans-73" x="129.882812"/>
      <use xlink:href="#DejaVuSans-65" x="181.982422"/>
      <use xlink:href="#DejaVuSans-20" x="243.505859"/>
      <use xlink:href="#DejaVuSans-63" x="275.292969"/>
      <use xlink:href="#DejaVuSans-75" x="330.273438"/>
      <use xlink:href="#DejaVuSans-72" x="393.652344"/>
      <use xlink:href="#DejaVuSans-76" x="434.765625"/>
      <use xlink:href="#DejaVuSans-65" x="493.945312"/>
     </g>
    </g>
    <g id="line2d_108">
     <path d="M 66.6 234.291812 
L 76.6 234.291812 
L 86.6 234.291812 
" style="fill: none; stroke-dasharray: 12,6; stroke-dashoffset: 0; stroke: #ff0000; stroke-width: 1.2"/>
    </g>
    <g id="text_13">
     <!-- 2x base curve -->
     <g transform="translate(94.6 237.791812) scale(0.1 -0.1)">
      <use xlink:href="#DejaVuSans-32"/>
      <use xlink:href="#DejaVuSans-78" x="63.623047"/>
      <use xlink:href="#DejaVuSans-20" x="122.802734"/>
      <use xlink:href="#DejaVuSans-62" x="154.589844"/>
      <use xlink:href="#DejaVuSans-61" x="218.066406"/>
      <use xlink:href="#DejaVuSans-73" x="279.345703"/>
      <use xlink:href="#DejaVuSans-65" x="331.445312"/>
      <use xlink:href="#DejaVuSans-20" x="392.96875"/>
      <use xlink:href="#DejaVuSans-63" x="424.755859"/>
      <use xlink:href="#DejaVuSans-75" x="479.736328"/>
      <use xlink:href="#DejaVuSans-72" x="543.115234"/>
      <use xlink:href="#DejaVuSans-76" x="584.228516"/>
      <use xlink:href="#DejaVuSans-65" x="643.408203"/>
     </g>
    </g>
    <g id="line2d_109">
     <path d="M 66.6 248.969937 
L 76.6 248.969937 
L 86.6 248.969937 
" style="fill: none; stroke-dasharray: 18,6; stroke-dashoffset: 0; stroke: #ff0000; stroke-width: 1.2"/>
    </g>
    <g id="text_14">
     <!-- 4x base curve -->
     <g transform="translate(94.6 252.469937) scale(0.1 -0.1)">
      <use xlink:href="#DejaVuSans-34"/>
      <use xlink:href="#DejaVuSans-78" x="63.623047"/>
      <use xlink:href="#DejaVuSans-20" x="122.802734"/>
      <use xlink:href="#DejaVuSans-62" x="154.589844"/>
      <use xlink:href="#DejaVuSans-61" x="218.066406"/>
      <use xlink:href="#DejaVuSans-73" x="279.345703"/>
      <use xlink:href="#DejaVuSans-65" x="331.445312"/>
      <use xlink:href="#DejaVuSans-20" x="392.96875"/>
      <use xlink:href="#DejaVuSans-63" x="424.755859"/>
      <use xlink:href="#DejaVuSans-75" x="479.736328"/>
      <use xlink:href="#DejaVuSans-72" x="543.115234"/>
      <use xlink:href="#DejaVuSans-76" x="584.228516"/>
      <use xlink:href="#DejaVuSans-65" x="643.408203"/>
     </g>
    </g>
    <g id="line2d_110">
     <path d="M 66.6 263.648062 
L 76.6 263.648062 
L 86.6 263.648062 
" style="fill: none; stroke-dasharray: 24,6; stroke-dashoffset: 0; stroke: #ff0000; stroke-width: 1.2"/>
    </g>
    <g id="text_15">
     <!-- 8x base curve -->
     <g transform="translate(94.6 267.148062) scale(0.1 -0.1)">
      <use xlink:href="#DejaVuSans-38"/>
      <use xlink:href="#DejaVuSans-78" x="63.623047"/>
      <use xlink:href="#DejaVuSans-20" x="122.802734"/>
      <use xlink:href="#DejaVuSans-62" x="154.589844"/>
      <use xlink:href="#DejaVuSans-61" x="218.066406"/>
      <use xlink:href="#DejaVuSans-73" x="279.345703"/>
      <use xlink:href="#DejaVuSans-65" x="331.445312"/>
      <use xlink:href="#DejaVuSans-20" x="392.96875"/>
      <use xlink:href="#DejaVuSans-63" x="424.755859"/>
      <use xlink:href="#DejaVuSans-75" x="479.736328"/>
      <use xlink:href="#DejaVuSans-72" x="543.115234"/>
      <use xlink:href="#DejaVuSans-76" x="584.228516"/>
      <use xlink:href="#DejaVuSans-65" x="643.408203"/>
     </g>
    </g>
    <g id="line2d_111">
     <path d="M 66.6 278.326188 
L 76.6 278.326188 
L 86.6 278.326188 
" style="fill: none; stroke-dasharray: 30,6; stroke-dashoffset: 0; stroke: #ff0000; stroke-width: 1.2"/>
    </g>
    <g id="text_16">
     <!-- 24x base curve -->
     <g transform="translate(94.6 281.826188) scale(0.1 -0.1)">
      <use xlink:href="#DejaVuSans-32"/>
      <use xlink:href="#DejaVuSans-34" x="63.623047"/>
      <use xlink:href="#DejaVuSans-78" x="127.246094"/>
      <use xlink:href="#DejaVuSans-20" x="186.425781"/>
      <use xlink:href="#DejaVuSans-62" x="218.212891"/>
      <use xlink:href="#DejaVuSans-61" x="281.689453"/>
      <use xlink:href="#DejaVuSans-73" x="342.96875"/>
      <use xlink:href="#DejaVuSans-65" x="395.068359"/>
      <use xlink:href="#DejaVuSans-20" x="456.591797"/>
      <use xlink:href="#DejaVuSans-63" x="488.378906"/>
      <use xlink:href="#DejaVuSans-75" x="543.359375"/>
      <use xlink:href="#DejaVuSans-72" x="606.738281"/>
      <use xlink:href="#DejaVuSans-76" x="647.851562"/>
      <use xlink:href="#DejaVuSans-65" x="707.03125"/>
     </g>
    </g>
    <g id="line2d_112">
     <path d="M 66.6 293.004312 
L 76.6 293.004312 
L 86.6 293.004312 
" style="fill: none; stroke: #008000; stroke-width: 1.5; stroke-linecap: square"/>
    </g>
    <g id="text_17">
     <!-- Normalized FFT -->
     <g transform="translate(94.6 296.504312) scale(0.1 -0.1)">
      <defs>
       <path id="DejaVuSans-4e" d="M 628 4666 
L 1478 4666 
L 3547 763 
L 3547 4666 
L 4159 4666 
L 4159 0 
L 3309 0 
L 1241 3903 
L 1241 0 
L 628 0 
L 628 4666 
z
" transform="scale(0.015625)"/>
       <path id="DejaVuSans-54" d="M -19 4666 
L 3928 4666 
L 3928 4134 
L 2272 4134 
L 2272 0 
L 1638 0 
L 1638 4134 
L -19 4134 
L -19 4666 
z
" transform="scale(0.015625)"/>
      </defs>
      <use xlink:href="#DejaVuSans-4e"/>
      <use xlink:href="#DejaVuSans-6f" x="74.804688"/>
      <use xlink:href="#DejaVuSans-72" x="135.986328"/>
      <use xlink:href="#DejaVuSans-6d" x="175.349609"/>
      <use xlink:href="#DejaVuSans-61" x="272.761719"/>
      <use xlink:href="#DejaVuSans-6c" x="334.041016"/>
      <use xlink:href="#DejaVuSans-69" x="361.824219"/>
      <use xlink:href="#DejaVuSans-7a" x="389.607422"/>
      <use xlink:href="#DejaVuSans-65" x="442.097656"/>
      <use xlink:href="#DejaVuSans-64" x="503.621094"/>
      <use xlink:href="#DejaVuSans-20" x="567.097656"/>
      <use xlink:href="#DejaVuSans-46" x="598.884766"/>
      <use xlink:href="#DejaVuSans-46" x="656.404297"/>
      <use xlink:href="#DejaVuSans-54" x="712.173828"/>
     </g>
    </g>
   </g>
  </g>
 </g>
 <defs>
  <clipPath id="pcc13fafe53">
   <rect x="57.6" y="41.472" width="357.12" height="266.112"/>
  </clipPath>
 </defs>
</svg>
